<?xml version="1.0" encoding="iso-8859-1"?>
<!-- Generator: Adobe Illustrator 19.0.0, SVG Export Plug-In . SVG Version: 6.00 Build 0)  -->
<svg version="1.1" id="Capa_1" xmlns="http://www.w3.org/2000/svg" xmlns:xlink="http://www.w3.org/1999/xlink" x="0px" y="0px"
	 viewBox="0 0 512 512" style="enable-background:new 0 0 512 512;" xml:space="preserve">
<g>
	<g>
		<path d="M93,452c-5.52,0-10,4.48-10,10c0,5.52,4.48,10,10,10s10-4.48,10-10C103,456.48,98.52,452,93,452z"/>
	</g>
</g>
<g>
	<g>
		<path d="M256,60c-22.056,0-40,17.944-40,40c0,22.056,17.944,40,40,40c22.056,0,40-17.944,40-40C296,77.944,278.056,60,256,60z
			 M256,120c-11.028,0-20-8.972-20-20s8.972-20,20-20c11.028,0,20,8.972,20,20S267.028,120,256,120z"/>
	</g>
</g>
<g>
	<g>
		<path d="M419,452H133c-5.522,0-10,4.477-10,10s4.478,10,10,10h286c5.522,0,10-4.477,10-10S424.522,452,419,452z"/>
	</g>
</g>
<g>
	<g>
		<path d="M482,260c5.522,0,10-4.477,10-10v-31.72c11.639-4.128,20-15.243,20-28.28v-20c0-0.047-0.006-0.091-0.007-0.138
			c-0.05-3.412-1.787-6.417-4.479-8.201c-0.021-0.014-0.04-0.03-0.062-0.044l-246-160c-3.314-2.156-7.59-2.156-10.904,0
			C249.347,2.398,5.65,160.898,4.486,161.661c-2.695,1.786-4.431,4.814-4.479,8.201C0.006,169.909,0,169.953,0,170v20
			c0,13.036,8.361,24.152,20,28.28V250c0,5.523,4.478,10,10,10h10v112H30c-5.522,0-10,4.477-10,10v35.768
			c-6.495,4.739-11.054,12.035-12.113,20.512l-7.81,62.48c-0.355,2.846,0.528,5.708,2.426,7.858C4.401,510.769,7.132,512,10,512h492
			c2.868,0,5.599-1.231,7.497-3.382c1.897-2.15,2.781-5.012,2.426-7.858l-7.81-62.479c-1.059-8.478-5.619-15.774-12.113-20.513V382
			c0-5.523-4.478-10-10-10h-10V260H482z M256,21.929L468.284,160H43.716L256,21.929z M30,200c-5.514,0-10-4.486-10-10v-10h472v10
			c0,5.514-4.486,10-10,10H30z M472,392v20h-63v-20C448.697,392,434.909,392,472,392z M429,372V260h23v112H429z M409,372h-10
			c-5.522,0-10,4.477-10,10v30h-20v-30c0-5.523-4.478-10-10-10h-10V260h10c5.522,0,10-4.477,10-10v-30h20v30c0,5.523,4.478,10,10,10
			h10V372z M236,372h-10V260h10c5.522,0,10-4.477,10-10v-30h20v30c0,5.523,4.478,10,10,10h10v112h-10c-5.522,0-10,4.477-10,10v30
			h-20v-30C246,376.477,241.522,372,236,372z M113,372h-10V260h10c5.522,0,10-4.477,10-10v-30h20v30c0,5.523,4.478,10,10,10h10v112
			h-10c-5.522,0-10,4.477-10,10v30h-20v-30C123,376.477,118.522,372,113,372z M40,240v-20h63v20C63.303,240,77.091,240,40,240z
			 M83,260v112H60V260H83z M163,392c39.697,0,25.909,0,63,0v20h-63V392z M183,372V260h23v112H183z M163,240v-20h63v20
			C186.303,240,200.091,240,163,240z M286,392c39.697,0,25.909,0,63,0v20h-63V392z M306,372V260h23v112H306z M286,240v-20h63v20
			C309.303,240,323.091,240,286,240z M40,392c39.697,0,25.909,0,63,0v20H40V392z M474.34,432c5.036,0,9.304,3.766,9.928,8.76
			l6.404,51.24H21.328l6.404-51.241c0.624-4.994,4.892-8.759,9.928-8.759C56.567,432,456.998,432,474.34,432z M409,240v-20h63v20
			C432.303,240,446.091,240,409,240z"/>
	</g>
</g>
<g>
</g>
<g>
</g>
<g>
</g>
<g>
</g>
<g>
</g>
<g>
</g>
<g>
</g>
<g>
</g>
<g>
</g>
<g>
</g>
<g>
</g>
<g>
</g>
<g>
</g>
<g>
</g>
<g>
</g>
</svg>
