<?xml version="1.0" encoding="utf-8"?>
<!-- Generator: Adobe Illustrator 22.0.1, SVG Export Plug-In . SVG Version: 6.00 Build 0)  -->
<svg version="1.1" id="Layer_1" xmlns="http://www.w3.org/2000/svg" xmlns:xlink="http://www.w3.org/1999/xlink" x="0px" y="0px"
	 viewBox="0 0 600 300" style="enable-background:new 0 0 600 300;" xml:space="preserve">
<style type="text/css">
	.st0{fill:#414042;}
</style>
<g>
	<path class="st0" d="M308.2,170.5h-15.1v40.9h-3.7v-40.9h-15.1v-3.2h33.9V170.5z"/>
	<path class="st0" d="M331.8,193.1H319v18.4h-3.8v-44.1h14.3c2.3,0,4.4,0.3,6.2,0.8c1.8,0.6,3.4,1.4,4.7,2.5c1.3,1.1,2.3,2.5,3,4.1
		c0.7,1.6,1,3.5,1,5.6c0,1.5-0.2,2.8-0.7,4.1c-0.4,1.3-1.1,2.4-1.9,3.5c-0.8,1-1.8,1.9-2.9,2.7c-1.1,0.7-2.4,1.3-3.7,1.7l11,18.7
		v0.4h-4L331.8,193.1z M319,189.9h11.4c1.7,0,3.2-0.3,4.5-0.8c1.3-0.5,2.4-1.2,3.3-2.1c0.9-0.9,1.5-1.9,2-3.1
		c0.4-1.2,0.7-2.4,0.7-3.6c0-1.5-0.2-2.9-0.7-4.1c-0.5-1.2-1.2-2.2-2.2-3.1s-2.1-1.5-3.5-2c-1.4-0.5-3-0.7-4.8-0.7H319V189.9z"/>
	<path class="st0" d="M378.5,199.1h-20l-4.5,12.4h-3.9l16.7-44.1h3.5l16.7,44.1h-3.9L378.5,199.1z M359.7,195.9h17.7l-8.8-24
		L359.7,195.9z"/>
	<path class="st0" d="M426.3,211.4h-3.7l-25.3-37.7v37.7h-3.8v-44.1h3.8l25.4,37.8v-37.8h3.7V211.4z"/>
	<path class="st0" d="M462.4,200.6c0-1.2-0.2-2.3-0.6-3.2c-0.4-0.9-1.1-1.8-2-2.6c-0.9-0.8-2.2-1.5-3.7-2.1
		c-1.5-0.6-3.5-1.3-5.8-1.9c-2.2-0.6-4.2-1.3-6-2c-1.8-0.7-3.3-1.6-4.5-2.6c-1.2-1-2.2-2.1-2.9-3.4c-0.7-1.3-1-2.8-1-4.5
		c0-1.7,0.4-3.2,1.1-4.6c0.7-1.4,1.7-2.6,3.1-3.6c1.3-1,2.9-1.8,4.7-2.3c1.8-0.6,3.8-0.8,6-0.8c2.3,0,4.4,0.3,6.3,1
		c1.9,0.7,3.5,1.6,4.8,2.8c1.3,1.2,2.3,2.6,3,4.2c0.7,1.6,1.1,3.3,1.1,5.1h-3.8c0-1.4-0.3-2.8-0.8-4c-0.5-1.2-1.2-2.3-2.2-3.2
		s-2.2-1.6-3.6-2.1c-1.4-0.5-3-0.8-4.8-0.8s-3.4,0.2-4.8,0.7c-1.4,0.4-2.5,1-3.5,1.8c-0.9,0.7-1.6,1.6-2.1,2.6c-0.5,1-0.7,2-0.7,3.1
		c0,1,0.2,2,0.6,2.9s1.1,1.7,2,2.5c0.9,0.8,2.1,1.5,3.7,2.1c1.5,0.7,3.4,1.3,5.6,1.9c2.3,0.6,4.4,1.4,6.2,2.1
		c1.8,0.8,3.4,1.7,4.6,2.7c1.3,1,2.2,2.2,2.8,3.6c0.6,1.4,1,2.9,1,4.7c0,1.8-0.4,3.4-1.1,4.8s-1.8,2.6-3.1,3.6
		c-1.3,1-2.9,1.7-4.8,2.3c-1.9,0.5-3.9,0.8-6.1,0.8c-1.3,0-2.6-0.1-4-0.3c-1.3-0.2-2.6-0.6-3.8-1c-1.2-0.5-2.4-1-3.4-1.7
		c-1.1-0.7-2-1.5-2.8-2.5c-0.8-1-1.4-2.1-1.8-3.4c-0.5-1.3-0.7-2.7-0.7-4.2h3.7c0,1.9,0.4,3.4,1.2,4.7c0.8,1.3,1.8,2.3,3,3.1
		c1.2,0.8,2.6,1.4,4.1,1.7c1.5,0.4,3,0.5,4.5,0.5c1.7,0,3.3-0.2,4.7-0.6c1.4-0.4,2.6-1,3.6-1.7c1-0.7,1.8-1.6,2.3-2.6
		S462.4,201.9,462.4,200.6z"/>
	<path class="st0" d="M498.5,190.8h-20.6v20.6h-3.7v-44.1h27.3v3.2h-23.6v17.1h20.6V190.8z"/>
	<path class="st0" d="M533.4,190.3h-20.6v18h23.7v3.1h-27.4v-44.1h27.3v3.2h-23.6v16.6h20.6V190.3z"/>
	<path class="st0" d="M560.8,193.1H548v18.4h-3.8v-44.1h14.3c2.3,0,4.4,0.3,6.2,0.8c1.8,0.6,3.4,1.4,4.7,2.5c1.3,1.1,2.3,2.5,3,4.1
		c0.7,1.6,1,3.5,1,5.6c0,1.5-0.2,2.8-0.7,4.1c-0.4,1.3-1.1,2.4-1.9,3.5c-0.8,1-1.8,1.9-2.9,2.7c-1.1,0.7-2.4,1.3-3.7,1.7l11,18.7
		v0.4h-4L560.8,193.1z M548,189.9h11.4c1.7,0,3.2-0.3,4.5-0.8c1.3-0.5,2.4-1.2,3.3-2.1c0.9-0.9,1.5-1.9,2-3.1
		c0.4-1.2,0.7-2.4,0.7-3.6c0-1.5-0.2-2.9-0.7-4.1c-0.5-1.2-1.2-2.2-2.2-3.1s-2.1-1.5-3.5-2c-1.4-0.5-3-0.7-4.8-0.7H548V189.9z"/>
</g>
<g>
	<path class="st0" d="M274.7,147.4v-44.1h15.4c2.6,0,4.9,0.2,6.9,0.7s3.7,1.2,5.1,2.2c1.4,1,2.5,2.3,3.2,3.8
		c0.7,1.5,1.1,3.3,1.1,5.4c0,1-0.1,2-0.4,2.9c-0.3,0.9-0.6,1.8-1.2,2.6c-0.5,0.8-1.2,1.5-2,2.2c-0.8,0.7-1.7,1.2-2.8,1.6
		c1.3,0.3,2.4,0.8,3.3,1.5c0.9,0.7,1.7,1.4,2.3,2.3c0.6,0.9,1,1.8,1.3,2.8s0.4,2.1,0.4,3.1c0,4.3-1.4,7.5-4.1,9.7s-6.7,3.3-11.8,3.3
		H274.7z M283.8,121.8h6.7c2.3,0,4-0.5,5.2-1.5c1.1-0.9,1.7-2.3,1.7-4c0-2-0.6-3.4-1.7-4.3c-1.2-0.9-3-1.3-5.5-1.3h-6.4V121.8z
		 M283.8,128.2v11.9h7.8c1.2,0,2.2-0.1,3-0.4c0.8-0.3,1.6-0.7,2.1-1.2c0.6-0.5,1-1.1,1.3-1.8c0.3-0.7,0.4-1.5,0.4-2.3
		c0-0.9-0.1-1.8-0.4-2.6c-0.2-0.8-0.6-1.4-1.1-1.9c-0.5-0.5-1.2-0.9-2-1.2c-0.8-0.3-1.8-0.4-3-0.4H283.8z"/>
	<path class="st0" d="M339.2,138.4h-15.9l-3,9.1h-9.7l16.4-44.1h8.4l16.5,44.1h-9.7L339.2,138.4z M325.7,131h11l-5.5-16.5L325.7,131
		z"/>
	<path class="st0" d="M391.8,147.4h-9.1l-17.7-29v29H356v-44.1h9.1l17.7,29.1v-29.1h9.1V147.4z"/>
	<path class="st0" d="M413.6,129.8l-4.7,5.1v12.6h-9.1v-44.1h9.1v20l4-5.5l11.2-14.5h11.2l-15.7,19.6l16.1,24.5h-10.8L413.6,129.8z"
		/>
</g>
<path class="st0" d="M277.3,68.2v18h-18c0,4.9-4.4,9-9.7,9H34.7c-5.4,0-9.7-4.1-9.7-9H7v-18l135.2-54.1L277.3,68.2z M277.3,248.4v18
	H7v-18c0-4.9,4.4-9,9.7-9h250.9C273,239.4,277.3,243.4,277.3,248.4z M79.1,104.2v108.1h18V104.2h36v108.1h18V104.2h36v108.1h18
	V104.2h36v108.1h8.3c5.4,0,9.7,4.1,9.7,9v9H25v-9c0-4.9,4.4-9,9.7-9H43V104.2H79.1z"/>
</svg>
