<?xml version="1.0" encoding="utf-8"?>
<!-- Generator: Adobe Illustrator 22.0.1, SVG Export Plug-In . SVG Version: 6.00 Build 0)  -->
<svg version="1.1" id="Layer_1" xmlns="http://www.w3.org/2000/svg" xmlns:xlink="http://www.w3.org/1999/xlink" x="0px" y="0px"
	 viewBox="0 0 600 300" style="enable-background:new 0 0 600 300;" xml:space="preserve">
<style type="text/css">
	.st0{fill:#414042;}
	.st1{fill:#ED1C24;}
</style>
<g>
	<path class="st0" d="M276.4,181.9h-15.1v40.9h-3.7v-40.9h-15.1v-3.2h33.9V181.9z"/>
	<path class="st0" d="M299.9,204.5h-12.8v18.4h-3.8v-44.1h14.3c2.3,0,4.4,0.3,6.2,0.8c1.8,0.6,3.4,1.4,4.7,2.5
		c1.3,1.1,2.3,2.5,3,4.1c0.7,1.6,1,3.5,1,5.6c0,1.5-0.2,2.8-0.7,4.1c-0.4,1.3-1.1,2.4-1.9,3.5c-0.8,1-1.8,1.9-2.9,2.7
		c-1.1,0.7-2.4,1.3-3.7,1.7l11,18.7v0.4h-4L299.9,204.5z M287.1,201.3h11.4c1.7,0,3.2-0.3,4.5-0.8c1.3-0.5,2.4-1.2,3.3-2.1
		c0.9-0.9,1.5-1.9,2-3.1c0.4-1.2,0.7-2.4,0.7-3.6c0-1.5-0.2-2.9-0.7-4.1c-0.5-1.2-1.2-2.2-2.2-3.1s-2.1-1.5-3.5-2
		c-1.4-0.5-3-0.7-4.8-0.7h-10.6V201.3z"/>
	<path class="st0" d="M346.6,210.5h-20l-4.5,12.4h-3.9l16.7-44.1h3.5l16.7,44.1h-3.9L346.6,210.5z M327.8,207.3h17.7l-8.8-24
		L327.8,207.3z"/>
	<path class="st0" d="M394.4,222.8h-3.7l-25.3-37.7v37.7h-3.8v-44.1h3.8l25.4,37.8v-37.8h3.7V222.8z"/>
	<path class="st0" d="M430.5,212c0-1.2-0.2-2.3-0.6-3.2c-0.4-0.9-1.1-1.8-2-2.6c-0.9-0.8-2.2-1.5-3.7-2.1c-1.5-0.6-3.5-1.3-5.8-1.9
		c-2.2-0.6-4.2-1.3-6-2c-1.8-0.7-3.3-1.6-4.5-2.6c-1.2-1-2.2-2.1-2.9-3.4c-0.7-1.3-1-2.8-1-4.5c0-1.7,0.4-3.2,1.1-4.6
		c0.7-1.4,1.7-2.6,3.1-3.6c1.3-1,2.9-1.8,4.7-2.3c1.8-0.6,3.8-0.8,6-0.8c2.3,0,4.4,0.3,6.3,1c1.9,0.7,3.5,1.6,4.8,2.8
		c1.3,1.2,2.3,2.6,3,4.2c0.7,1.6,1.1,3.3,1.1,5.1h-3.8c0-1.4-0.3-2.8-0.8-4c-0.5-1.2-1.2-2.3-2.2-3.2s-2.2-1.6-3.6-2.1
		c-1.4-0.5-3-0.8-4.8-0.8s-3.4,0.2-4.8,0.7c-1.4,0.4-2.5,1-3.5,1.8c-0.9,0.7-1.6,1.6-2.1,2.6c-0.5,1-0.7,2-0.7,3.1
		c0,1,0.2,2,0.6,2.9s1.1,1.7,2,2.5c0.9,0.8,2.1,1.5,3.7,2.1c1.5,0.7,3.4,1.3,5.6,1.9c2.3,0.6,4.4,1.4,6.2,2.1
		c1.8,0.8,3.4,1.7,4.6,2.7c1.3,1,2.2,2.2,2.8,3.6c0.6,1.4,1,2.9,1,4.7c0,1.8-0.4,3.4-1.1,4.8s-1.8,2.6-3.1,3.6
		c-1.3,1-2.9,1.7-4.8,2.3c-1.9,0.5-3.9,0.8-6.1,0.8c-1.3,0-2.6-0.1-4-0.3c-1.3-0.2-2.6-0.6-3.8-1c-1.2-0.5-2.4-1-3.4-1.7
		c-1.1-0.7-2-1.5-2.8-2.5c-0.8-1-1.4-2.1-1.8-3.4c-0.5-1.3-0.7-2.7-0.7-4.2h3.7c0,1.9,0.4,3.4,1.2,4.7c0.8,1.3,1.8,2.3,3,3.1
		c1.2,0.8,2.6,1.4,4.1,1.7c1.5,0.4,3,0.5,4.5,0.5c1.7,0,3.3-0.2,4.7-0.6c1.4-0.4,2.6-1,3.6-1.7c1-0.7,1.8-1.6,2.3-2.6
		S430.5,213.2,430.5,212z"/>
	<path class="st0" d="M466.6,202.2h-20.6v20.6h-3.7v-44.1h27.3v3.2h-23.6V199h20.6V202.2z"/>
	<path class="st0" d="M501.6,201.7h-20.6v18h23.7v3.1h-27.4v-44.1h27.3v3.2h-23.6v16.6h20.6V201.7z"/>
	<path class="st0" d="M529,204.5h-12.8v18.4h-3.8v-44.1h14.3c2.3,0,4.4,0.3,6.2,0.8c1.8,0.6,3.4,1.4,4.7,2.5c1.3,1.1,2.3,2.5,3,4.1
		c0.7,1.6,1,3.5,1,5.6c0,1.5-0.2,2.8-0.7,4.1c-0.4,1.3-1.1,2.4-1.9,3.5c-0.8,1-1.8,1.9-2.9,2.7c-1.1,0.7-2.4,1.3-3.7,1.7l11,18.7
		v0.4h-4L529,204.5z M516.2,201.3h11.4c1.7,0,3.2-0.3,4.5-0.8c1.3-0.5,2.4-1.2,3.3-2.1c0.9-0.9,1.5-1.9,2-3.1
		c0.4-1.2,0.7-2.4,0.7-3.6c0-1.5-0.2-2.9-0.7-4.1c-0.5-1.2-1.2-2.2-2.2-3.1s-2.1-1.5-3.5-2c-1.4-0.5-3-0.7-4.8-0.7h-10.6V201.3z"/>
</g>
<g>
	<path class="st0" d="M434.9,156.2v-44.1h15.4c2.6,0,4.9,0.2,6.9,0.7s3.7,1.2,5.1,2.2c1.4,1,2.5,2.3,3.2,3.8
		c0.7,1.5,1.1,3.3,1.1,5.4c0,1-0.1,2-0.4,2.9c-0.3,0.9-0.6,1.8-1.2,2.6c-0.5,0.8-1.2,1.5-2,2.2c-0.8,0.7-1.7,1.2-2.8,1.6
		c1.3,0.3,2.4,0.8,3.3,1.5c0.9,0.7,1.7,1.4,2.3,2.3c0.6,0.9,1,1.8,1.3,2.8s0.4,2.1,0.4,3.1c0,4.3-1.4,7.5-4.1,9.7s-6.7,3.3-11.8,3.3
		H434.9z M444,130.6h6.7c2.3,0,4-0.5,5.2-1.5c1.1-0.9,1.7-2.3,1.7-4c0-2-0.6-3.4-1.7-4.3c-1.2-0.9-3-1.3-5.5-1.3H444V130.6z
		 M444,137v11.9h7.8c1.2,0,2.2-0.1,3-0.4c0.8-0.3,1.6-0.7,2.1-1.2c0.6-0.5,1-1.1,1.3-1.8c0.3-0.7,0.4-1.5,0.4-2.3
		c0-0.9-0.1-1.8-0.4-2.6c-0.2-0.8-0.6-1.4-1.1-1.9c-0.5-0.5-1.2-0.9-2-1.2c-0.8-0.3-1.8-0.4-3-0.4H444z"/>
	<path class="st0" d="M499.3,147.1h-15.9l-3,9.1h-9.7l16.4-44.1h8.4l16.5,44.1h-9.7L499.3,147.1z M485.9,139.8h11l-5.5-16.5
		L485.9,139.8z"/>
	<path class="st0" d="M552,156.2H543l-17.7-29v29h-9.1v-44.1h9.1l17.7,29.1v-29.1h9.1V156.2z"/>
	<path class="st0" d="M573.8,138.5l-4.7,5.1v12.6H560v-44.1h9.1v20l4-5.5l11.2-14.5h11.2l-15.7,19.6l16.1,24.5h-10.8L573.8,138.5z"
		/>
</g>
<path class="st0" d="M277.3,68.2v18h-18c0,4.9-4.4,9-9.7,9H34.7c-5.4,0-9.7-4.1-9.7-9H7v-18l135.2-54.1L277.3,68.2z M277.3,248.4v18
	H7v-18c0-4.9,4.4-9,9.7-9h250.9C273,239.4,277.3,243.4,277.3,248.4z M259.3,230.4H25v-9c0-4.9,4.4-9,9.7-9H43V104.2h36v108.1h18
	V104.2h36v126.1l0,0"/>
<g>
	<path class="st1" d="M255.1,150.2h18.7v7.1h-27.5v-42.7h8.8V150.2z"/>
	<path class="st1" d="M312,136.9c0,3.3-0.4,6.2-1.3,8.8c-0.9,2.6-2.1,4.8-3.7,6.6c-1.6,1.8-3.5,3.2-5.7,4.2s-4.7,1.5-7.4,1.5
		s-5.1-0.5-7.4-1.5c-2.2-1-4.2-2.4-5.8-4.2c-1.6-1.8-2.9-4-3.8-6.6c-0.9-2.6-1.3-5.5-1.3-8.8V135c0-3.2,0.4-6.2,1.3-8.8
		c0.9-2.6,2.1-4.8,3.7-6.6s3.5-3.2,5.8-4.2s4.7-1.5,7.4-1.5s5.1,0.5,7.4,1.5s4.1,2.4,5.8,4.2s2.9,4,3.7,6.6c0.9,2.6,1.3,5.5,1.3,8.8
		V136.9z M303.1,134.9c0-4.5-0.8-7.9-2.4-10.2c-1.6-2.3-3.9-3.5-6.9-3.5s-5.3,1.2-6.9,3.5c-1.6,2.3-2.4,5.7-2.4,10.2v1.9
		c0,2.2,0.2,4.2,0.6,5.9c0.4,1.7,1,3.2,1.8,4.3c0.8,1.2,1.8,2,2.9,2.6c1.2,0.6,2.5,0.9,4,0.9c3,0,5.3-1.2,6.8-3.5s2.4-5.8,2.4-10.2
		V134.9z"/>
	<path class="st1" d="M352,143c-0.2,2.2-0.6,4.2-1.5,6c-0.8,1.8-2,3.4-3.4,4.7c-1.4,1.3-3.2,2.3-5.3,3.1c-2.1,0.7-4.4,1.1-7.1,1.1
		c-2.7,0-5.2-0.5-7.4-1.4c-2.2-0.9-4-2.3-5.5-4.1c-1.5-1.8-2.7-3.9-3.5-6.5c-0.8-2.5-1.2-5.4-1.2-8.5v-2.8c0-3.1,0.4-6,1.3-8.5
		c0.8-2.5,2-4.7,3.6-6.5c1.5-1.8,3.4-3.1,5.6-4.1c2.2-1,4.6-1.4,7.3-1.4c2.7,0,5,0.4,7.1,1.1c2,0.8,3.8,1.8,5.2,3.1
		c1.4,1.3,2.5,2.9,3.3,4.8c0.8,1.8,1.3,3.9,1.5,6h-8.8c-0.1-1.3-0.3-2.4-0.7-3.4c-0.3-1-0.8-1.8-1.5-2.5c-0.6-0.7-1.5-1.2-2.5-1.5
		s-2.3-0.5-3.7-0.5c-3,0-5.2,1.1-6.6,3.2c-1.5,2.2-2.2,5.5-2.2,10.1v2.9c0,2.2,0.2,4.1,0.5,5.8c0.3,1.7,0.8,3.1,1.5,4.2
		c0.7,1.1,1.6,2,2.7,2.5s2.4,0.8,4,0.8c1.4,0,2.6-0.2,3.6-0.5c1-0.3,1.8-0.8,2.5-1.4c0.7-0.6,1.2-1.4,1.6-2.4c0.4-1,0.6-2.1,0.7-3.3
		H352z"/>
	<path class="st1" d="M381.9,148.5h-15.4l-2.9,8.8h-9.4l15.9-42.7h8.2l16,42.7h-9.4L381.9,148.5z M368.8,141.3h10.7l-5.4-16
		L368.8,141.3z"/>
	<path class="st1" d="M407,150.2h18.7v7.1h-27.5v-42.7h8.8V150.2z"/>
</g>
<g>
	<path class="st1" d="M228.1,156.2l-31.6,67.1c-1.8,3.8-5.8,6.2-10,6.2s-8.2-2.3-9.9-6.2L145,156.2c-2.3-4.8-2.9-10.2-2.9-15.5
		c0-24.5,19.9-44.4,44.4-44.4s44.4,19.9,44.4,44.4C231,146,230.4,151.5,228.1,156.2z M186.6,118.5c-12.2,0-22.2,10-22.2,22.2
		s10,22.2,22.2,22.2s22.2-10,22.2-22.2S198.8,118.5,186.6,118.5z"/>
</g>
</svg>
