<?xml version="1.0" encoding="utf-8"?>
<!-- Generator: Adobe Illustrator 21.0.2, SVG Export Plug-In . SVG Version: 6.00 Build 0)  -->
<svg version="1.1" id="Layer_1" xmlns="http://www.w3.org/2000/svg" xmlns:xlink="http://www.w3.org/1999/xlink" x="0px" y="0px"
	 viewBox="0 0 180 180" style="enable-background:new 0 0 180 180;" xml:space="preserve">
<style type="text/css">
	.st0{fill:#F41112;}
	.st1{fill:#FFFFFF;}
</style>
<g>
	<rect x="0" y="0" class="st0" width="180" height="180"/>
	<g>
		<g>
			<path class="st1" d="M55.6,60.9H27v1.4c3.3,0.2,4.4,0.6,4.4,4.1v23.3c0,3.6-1.1,3.9-4.4,4.1v1.2h16.1v-1.2c-4.1-0.2-5-0.6-5-4.1
				V78.5H44c4.4,0,6.5,1.1,7.2,5h1.4v-12h-1.4c-0.6,3.6-1.8,4.5-7.2,4.5h-5.9V65.1c0-1.4,0.3-1.7,2-1.7h5.1c6.8,0,8,1.2,9.2,5h1.4
				L55.6,60.9z"/>
			<path class="st1" d="M77.4,91.4l-6.6-9.8l3.6-4.5c2.4-2.9,3.8-4.4,5.9-4.5v-1.4h-9.3v1.4c1.7,0,2.4,0.5,2.4,1.5
				c0,0.9-1.1,2.1-2,3l-2.1,2.4l-2.4-3.6c-0.6-0.8-1.1-1.4-1.1-2.1c0-0.8,0.9-1.2,2.4-1.2v-1.4H55.7v1.4c1.8,0.5,2.6,1.5,3.5,2.9
				l6.2,9l-5.1,6c-1.8,2.1-2.7,2.9-4.8,3.2v1.2h9.2v-1.2c-1.2,0-2.6-0.3-2.6-1.1s0.9-1.8,2.4-3.6l2.1-2.6l2.6,3.8
				c0.9,1.4,1.4,2,1.4,2.4c0,0.6-0.9,0.9-2.6,0.9v1.2h12.8v-1.2C79.6,93.8,78.7,93.5,77.4,91.4z"/>
			<path class="st1" d="M98.8,60.9H82.8v1.4c3.5,0.2,4.4,0.6,4.4,4.1v23.3c0,3.6-0.9,3.9-4.4,4.1v1.2h15.8v-1.2
				C94.9,93.5,94,93,94,89.6v-8.9h4.5c8.7,0,13.4-3.5,13.4-9.9C111.8,65.2,108.2,60.9,98.8,60.9z M93.9,78.8v-14c0-1.2,0.5-2,2.9-2
				c4.5,0,8,2.6,8,7.2C104.7,75.5,101.9,78.8,93.9,78.8z"/>
			<path class="st1" d="M127.9,70.8c-2.9,0-4.7,2.3-5.6,4.4h-0.2v-3.6c0-0.5,0-0.8-0.3-0.8c-0.5,0-6,1.5-8.6,2v1.4
				c2.3,0,2.9,0.5,2.9,3v13.7c0,2.1-0.9,2.6-2.9,2.9v1.2h12.5v-1.2c-2.3,0-3.6-0.6-3.6-3.2V77.3c0.8-1.2,1.7-2,2.6-2
				c0.6,0,1.1,0.3,1.4,0.5c0.5,0.3,1.1,1.1,2.4,1.1c1.5,0,2.7-1.2,2.7-2.7C131.3,72.6,130.3,70.8,127.9,70.8z"/>
			<path class="st1" d="M142.1,70.8c-6.8,0-11.4,5.3-11.4,12.5s4.7,12.5,11.4,12.5c6.8,0,11.4-5.3,11.4-12.5S148.9,70.8,142.1,70.8z
				 M142.1,93.6c-3.6,0-5-3.2-5-10.4c0-7.2,1.5-10.4,5-10.4c3.6,0,5,3.2,5,10.4C147.2,90.5,145.7,93.6,142.1,93.6z"/>
		</g>
		<g>
			<path class="st1" d="M30.9,118.3v-10.7h-3.8v-1.4h9.2v1.4h-3.8v10.7H30.9z"/>
			<path class="st1" d="M36.6,118.3v-8.7H38v1.4c0.8-0.9,1.7-1.7,2.9-1.7v1.4c-0.2,0-0.3,0-0.6,0c-0.8,0-2,0.8-2.4,1.4v6.2
				C38,118.3,36.6,118.3,36.6,118.3z"/>
			<path class="st1" d="M48.1,118.3v-1.1c-0.8,0.8-1.7,1.2-2.9,1.2c-1.5,0-3-1.1-3-2.9c0-2,1.5-2.9,3-2.9c1.2,0,2.3,0.5,2.9,1.2
				v-1.5c0-1.2-0.9-1.8-2.3-1.8c-1.1,0-2,0.5-2.7,1.2l-0.6-0.9c0.9-1.1,2.1-1.5,3.5-1.5c1.8,0,3.3,0.8,3.3,3v6L48.1,118.3
				L48.1,118.3z M48.1,116.5v-1.7c-0.5-0.8-1.5-1.1-2.4-1.1c-1.2,0-2.1,0.8-2.1,2c0,1.2,0.9,2,2.1,2
				C46.6,117.5,47.5,117.1,48.1,116.5z"/>
			<path class="st1" d="M58.4,118.3v-1.4c-0.6,0.9-1.7,1.5-3,1.5c-2.3,0-3.9-1.8-3.9-4.5c0-2.7,1.7-4.5,3.9-4.5c1.2,0,2.3,0.6,3,1.5
				v-4.7h1.4v12C59.8,118.3,58.4,118.3,58.4,118.3z M58.4,115.9V112c-0.5-0.8-1.5-1.4-2.6-1.4c-1.8,0-2.9,1.5-2.9,3.3
				c0,1.8,1.1,3.3,2.9,3.3C56.9,117.2,58,116.6,58.4,115.9z"/>
			<path class="st1" d="M61.9,113.9c0-2.6,1.8-4.5,4.4-4.5c2.7,0,4.2,2.1,4.2,4.7v0.3h-7.1c0.2,1.7,1.2,3,3.2,3c1.1,0,2-0.5,2.7-1.1
				l0.6,0.9c-0.9,0.9-2.1,1.4-3.5,1.4C63.8,118.4,61.9,116.6,61.9,113.9z M66.2,110.5c-1.8,0-2.7,1.5-2.9,2.9h5.7
				C69.1,112.1,68.2,110.5,66.2,110.5z"/>
			<path class="st1" d="M77.4,118.3v-12h1.5v10.7h5.6v1.4H77.4z"/>
			<path class="st1" d="M86.2,107.5c0-0.5,0.5-0.9,0.9-0.9c0.5,0,0.9,0.5,0.9,0.9c0,0.5-0.5,0.9-0.9,0.9
				C86.7,108.4,86.2,107.9,86.2,107.5z M86.4,118.3v-8.7h1.4v8.7H86.4z"/>
			<path class="st1" d="M96.4,118.3l-3.2-3.9l-1.5,1.5v2.4h-1.4v-12h1.4v8l4.5-4.7h1.7l-3.9,3.9l3.9,4.8H96.4z"/>
			<path class="st1" d="M99.2,113.9c0-2.6,1.8-4.5,4.4-4.5c2.7,0,4.2,2.1,4.2,4.7v0.3h-7.1c0.2,1.7,1.2,3,3.2,3c1.1,0,2-0.5,2.7-1.1
				l0.6,0.9c-0.9,0.8-2.1,1.2-3.5,1.2C101.1,118.4,99.2,116.6,99.2,113.9z M103.5,110.5c-1.8,0-2.7,1.5-2.9,2.9h5.7
				C106.4,112.1,105.5,110.5,103.5,110.5z"/>
			<path class="st1" d="M119.9,118.3v-1.1c-0.6,0.9-1.7,1.2-2.9,1.2c-1.5,0-3-1.1-3-2.9c0-2,1.5-2.9,3-2.9c1.2,0,2.3,0.5,2.9,1.2
				v-1.5c0-1.2-0.9-1.8-2.3-1.8c-1.1,0-2,0.5-2.7,1.2l-0.6-0.9c0.9-1.1,2.1-1.5,3.5-1.5c1.8,0,3.3,0.8,3.3,3v6L119.9,118.3
				L119.9,118.3z M119.9,116.5v-1.7c-0.5-0.8-1.5-1.1-2.4-1.1c-1.2,0-2.1,0.8-2.1,2c0,1.2,0.9,2,2.1,2
				C118.5,117.5,119.4,117.1,119.9,116.5z"/>
			<path class="st1" d="M128.8,118.3v-12h4.8c2.4,0,3.8,1.7,3.8,3.6c0,2-1.4,3.6-3.8,3.6h-3.3v4.8H128.8z M135.8,109.9
				c0-1.4-1.1-2.3-2.4-2.3h-3.2v4.5h3C134.8,112.1,135.8,111.2,135.8,109.9z"/>
			<path class="st1" d="M139.3,118.3v-8.7h1.4v1.4c0.8-0.9,1.7-1.7,2.9-1.7v1.4c-0.2,0-0.3,0-0.6,0c-0.8,0-2,0.8-2.4,1.4v6.2
				C140.6,118.3,139.3,118.3,139.3,118.3z"/>
			<path class="st1" d="M144.7,113.9c0-2.6,1.7-4.5,4.4-4.5c2.7,0,4.4,2.1,4.4,4.5c0,2.6-1.7,4.5-4.4,4.5
				C146.3,118.4,144.7,116.5,144.7,113.9z M151.9,113.9c0-1.8-1.1-3.3-2.9-3.3s-2.9,1.7-2.9,3.3c0,1.8,1.1,3.3,2.9,3.3
				C150.8,117.2,151.9,115.7,151.9,113.9z"/>
		</g>
	</g>
</g>
</svg>
