<?xml version="1.0" encoding="utf-8"?>
<!-- Generator: Adobe Illustrator 21.1.0, SVG Export Plug-In . SVG Version: 6.00 Build 0)  -->
<svg version="1.1" id="Layer_1" xmlns="http://www.w3.org/2000/svg" xmlns:xlink="http://www.w3.org/1999/xlink" x="0px" y="0px"
	 viewBox="0 0 95.5 95.5" style="enable-background:new 0 0 95.5 95.5;" xml:space="preserve">
<style type="text/css">
	.st0{clip-path:url(#SVGID_2_);}
	.st1{fill:none;}
	.st2{fill:#293576;}
	.st3{fill:#FFFFFF;}
	.st4{fill:#CF202D;}
</style>
<g>
	<g>
		<defs>
			<rect id="SVGID_1_" width="95.5" height="95.5"/>
		</defs>
		<clipPath id="SVGID_2_">
			<use xlink:href="#SVGID_1_"  style="overflow:visible;"/>
		</clipPath>
		<g class="st0">
			<g>
				<g>
					<circle class="st1" cx="47.6" cy="47.8" r="48.2"/>
					<g>
						<g>
							<rect x="-24.6" y="-0.5" class="st2" width="144.6" height="96.4"/>
							<g>
								<polygon class="st3" points="120,33.3 62.1,33.3 62.1,-0.5 33.2,-0.5 33.2,33.3 -24.6,33.3 -24.6,62.1 33.2,62.1 33.2,95.9 
									62.1,95.9 62.1,62.1 120,62.1 								"/>
								<polygon class="st3" points="120,84.8 -8,-0.5 -24.6,-0.5 -24.6,10.7 103.3,95.9 120,95.9 								"/>
								<polygon class="st3" points="-24.6,84.8 103.4,-0.5 120,-0.5 120,10.7 -7.9,95.9 -24.6,95.9 								"/>
								<polygon class="st4" points="120,39.2 56.1,39.2 56.1,-0.5 39.2,-0.5 39.2,39.2 -24.6,39.2 -24.6,56.2 39.2,56.2 39.2,95.9 
									56.1,95.9 56.1,56.2 120,56.2 								"/>
								<polygon class="st4" points="120,95.6 120,88 81.1,62.1 69.6,62.1 								"/>
								<polygon class="st4" points="120,-0.5 108.5,-0.5 62.1,30.4 62.1,33.3 69.2,33.3 								"/>
								<polygon class="st4" points="25.7,62.1 -24.6,95.7 -24.6,95.9 -13.6,95.9 33.2,64.8 33.2,62.1 								"/>
								<polygon class="st4" points="-24.6,-0.4 -24.6,7.2 14.6,33.3 26,33.3 								"/>
							</g>
						</g>
					</g>
				</g>
			</g>
		</g>
	</g>
</g>
</svg>
