<svg xmlns="http://www.w3.org/2000/svg" xmlns:xlink="http://www.w3.org/1999/xlink" preserveAspectRatio="xMidYMid" width="29.91" height="20" viewBox="0 0 29.91 20">
  <defs>
    <style>
      .cls-1 {
        fill: #000;
        opacity: 0.5;
        fill-rule: evenodd;
      }
    </style>
  </defs>
  <path d="M29.777,10.476 C26.557,16.439 21.009,20.000 14.934,20.000 C8.859,20.000 3.311,16.439 0.091,10.476 C-0.069,10.179 -0.069,9.821 0.091,9.524 C3.311,3.560 8.859,-0.000 14.934,-0.000 C21.009,-0.000 26.557,3.560 29.777,9.524 C29.936,9.821 29.936,10.179 29.777,10.476 ZM14.934,2.000 C9.764,2.000 5.008,4.980 2.112,10.000 C5.008,15.020 9.764,18.000 14.934,18.000 C20.104,18.000 24.860,15.020 27.756,10.000 C24.860,4.980 20.104,2.000 14.934,2.000 ZM14.934,15.000 C12.179,15.000 9.946,12.761 9.946,10.000 C9.946,9.300 10.092,8.635 10.351,8.031 L14.934,10.000 L12.970,5.405 C13.573,5.146 14.236,5.000 14.934,5.000 C17.688,5.000 19.921,7.238 19.921,10.000 C19.921,12.761 17.688,15.000 14.934,15.000 Z" class="cls-1"/>
</svg>
