<?xml version="1.0" encoding="utf-8"?>
<!-- Generator: Adobe Illustrator 21.1.0, SVG Export Plug-In . SVG Version: 6.00 Build 0)  -->
<svg version="1.1" id="Layer_1" xmlns="http://www.w3.org/2000/svg" xmlns:xlink="http://www.w3.org/1999/xlink" x="0px" y="0px"
	 viewBox="0 0 95.5 95.5" style="enable-background:new 0 0 95.5 95.5;" xml:space="preserve">
<style type="text/css">
	.st0{clip-path:url(#SVGID_2_);}
	.st1{fill:none;}
	.st2{fill:#FFFFFF;}
	.st3{fill:#DC2727;}
	.st4{fill:#23449C;}
	.st5{fill:#FFD10A;}
</style>
<g>
	<g>
		<defs>
			<rect id="SVGID_1_" width="95.5" height="95.5"/>
		</defs>
		<clipPath id="SVGID_2_">
			<use xlink:href="#SVGID_1_"  style="overflow:visible;"/>
		</clipPath>
		<g class="st0">
			<g>
				<circle class="st1" cx="48.7" cy="47.8" r="47.7"/>
				<g>
					<g>
						<rect x="-15.8" y="66" class="st2" width="143.1" height="7.3"/>
						<rect x="-15.8" y="58.7" class="st3" width="143.1" height="7.3"/>
						<rect x="-15.8" y="88.1" class="st3" width="143.1" height="7.3"/>
						<rect x="-15.8" y="51.4" class="st2" width="143.1" height="7.3"/>
						<rect x="-15.8" y="73.5" class="st3" width="143.1" height="7.3"/>
						<rect x="-15.8" y="80.8" class="st2" width="143.1" height="7.3"/>
						<rect x="-15.8" y="22" class="st2" width="143.1" height="7.3"/>
						<rect x="-15.8" y="44" class="st3" width="143.1" height="7.3"/>
						<rect x="-15.8" y="7.3" class="st2" width="143.1" height="7.3"/>
						<rect x="-15.8" y="14.6" class="st3" width="143.1" height="7.3"/>
						<rect x="-15.8" class="st3" width="143.1" height="7.3"/>
						<rect x="-15.8" y="36.7" class="st2" width="143.1" height="7.3"/>
						<rect x="-15.8" y="29.4" class="st3" width="143.1" height="7.3"/>
					</g>
					<g>
						<rect x="-15.8" class="st4" width="71.6" height="58.8"/>
						<path class="st5" d="M16.4,45.7C7.4,45.7,0,38.4,0,29.4S7.4,13,16.4,13c2.6,0,5.2,0.6,7.4,1.7c-3.1-2.4-7.1-4-11.4-4
							C2.1,10.7-6.2,19-6.2,29.3C-6.1,39.6,2.2,48,12.4,48c4.3,0,8.2-1.4,11.4-4C21.6,45.1,19,45.7,16.4,45.7z"/>
						<polygon class="st5" points="31,13.8 32.4,23.6 37.8,15.3 34.8,24.7 43.2,19.7 36.4,26.8 46.3,25.9 37,29.4 46.3,32.8 
							36.4,31.9 43.2,39.1 34.8,34 37.8,43.4 32.4,35.2 31,44.9 29.7,35.2 24.3,43.4 27.4,34 18.9,39.1 25.8,31.9 15.9,32.8 
							25.1,29.4 15.9,25.9 25.8,26.8 18.9,19.7 27.4,24.7 24.3,15.3 29.7,23.6 						"/>
					</g>
				</g>
			</g>
		</g>
	</g>
</g>
</svg>
