<?xml version="1.0" encoding="utf-8"?>
<!-- Generator: Adobe Illustrator 21.1.0, SVG Export Plug-In . SVG Version: 6.00 Build 0)  -->
<svg version="1.1" id="Layer_1" xmlns="http://www.w3.org/2000/svg" xmlns:xlink="http://www.w3.org/1999/xlink" x="0px" y="0px"
	 viewBox="0 0 95.5 95.5" style="enable-background:new 0 0 95.5 95.5;" xml:space="preserve">
<style type="text/css">
	.st0{clip-path:url(#SVGID_2_);}
	.st1{fill:none;}
	.st2{fill:#CE2029;}
	.st3{fill:#3F8E42;}
	.st4{fill:#FCD756;}
	.st5{fill:#010101;}
	.st6{fill:#FFFFFF;}
	.st7{fill:#2173B8;}
</style>
<g>
	<g>
		<defs>
			<rect id="SVGID_1_" width="95.5" height="95.5"/>
		</defs>
		<clipPath id="SVGID_2_">
			<use xlink:href="#SVGID_1_"  style="overflow:visible;"/>
		</clipPath>
		<g class="st0">
			<g>
				<circle class="st1" cx="48.8" cy="47.8" r="47.7"/>
				<g>
					<g>
						<rect x="34.5" class="st2" width="85.8" height="95.4"/>
						<rect x="-22.7" class="st3" width="57.2" height="95.4"/>
					</g>
					<g>
						<path class="st4" d="M52.3,61.8C45.5,61.6,14.1,42,13.9,38.9l1.7-2.8c3.1,4.5,35.2,23.6,38.3,22.9L52.3,61.8L52.3,61.8z"/>
						<path class="st5" d="M52.3,61.8C45.5,61.6,14.1,42,14,38.9h-0.1l0,0l1.7-2.8l0,0l0,0c3,4.5,34,22.9,38.1,22.9h0.2v-0.1l0,0
							L52.3,61.8L52.3,61.8L54,59l0.1-0.1H54h-0.2c-4,0-35.1-18.5-38-22.9h-0.2l-1.7,2.9l0,0l0,0c0.3,3.3,31.5,22.7,38.4,23
							C52.3,61.9,52.3,61.8,52.3,61.8z"/>
						<path class="st4" d="M15.2,35.7c-0.6,1.6,8.1,7.1,18.8,13.5c10.6,6.4,19.7,10.4,20.3,9.9l0.3-0.6l-0.9,0.1
							c-2.8-0.8-10.3-4.3-19.5-9.9S16.9,37.9,15.7,35.8l-0.1-0.6l0,0L15.2,35.7L15.2,35.7z M52.4,61.9l-0.7,0.2
							c-2.5-0.3-10.3-4.1-19.5-9.6c-10.7-6.4-19.5-12.2-18.5-13.7l0.3-0.5l0,0C13.1,40.9,31.3,51.4,32.5,52
							C43,58.5,52,62.4,52.7,61.4L52.4,61.9L52.4,61.9z"/>
						<path class="st5" d="M15.2,35.7L15.2,35.7l-0.1,0.2c0,1.9,8.5,7.1,18.8,13.4c10,6,18.5,9.9,20.1,9.9l0.3-0.1l0.3-0.6v-0.1
							l-1,0.1c-2.8-0.8-10.3-4.3-19.5-9.9S16.8,37.8,15.6,35.7v-0.5l0,0h-0.1l0,0L15.2,35.7L15.2,35.7L15.2,35.7L15.2,35.7
							L15.2,35.7l0.4-0.5l0,0v0.1l0,0v-0.1h-0.1l0.1,0.6c1.3,2.2,9.2,7.3,18.5,13c9.2,5.6,16.7,9,19.5,9.9l0.8-0.1L54.1,59h-0.2
							c-1.5,0-10.2-3.9-20.1-9.9C23.5,43,15,37.6,15,35.9L15.2,35.7L15.2,35.7z M52.4,61.9L52.4,61.9L51.7,62
							c-2.5-0.3-10.3-4.1-19.4-9.5C22.1,46.3,13.7,40.7,13.7,39l0.1-0.2l0.2-0.4l0,0v-0.1h-0.1v0.2c0,2.9,17.5,12.9,18.5,13.5
							c9.4,5.9,17.6,9.5,19.8,9.5l0.5-0.2l0,0l0,0L52.4,61.9L52.4,61.9L52.4,61.9L52.4,61.9L52.4,61.9L52.4,61.9L52.4,61.9
							L52.4,61.9L52.4,61.9l-0.1,0.2l0.4-0.7l-0.1-0.1l-0.4,0.2c-2.1,0-10.3-3.7-19.7-9.5C31.5,51.3,14,41.2,14,38.5v-0.2v-0.1h-0.1
							l0,0l-0.3,0.6V39c0,1.9,8.5,7.4,18.6,13.5c9.1,5.5,17,9.2,19.5,9.6L52.4,61.9L52.4,61.9L52.4,61.9L52.4,61.9z"/>
						<path class="st4" d="M34.2,63.1c8.2,0,15.4-1.1,18.7-2.8l1.2-2.1c-2.8,1.5-10.6,3.1-19.9,2.9c-7.6,0-15.6-0.8-19.5-3l1.7,2.4
							C19.6,62.3,27.2,63.1,34.2,63.1L34.2,63.1z"/>
						<path class="st5" d="M34.2,63.2h0.4c8.1,0,15-1.2,18.4-2.8l1.2-2.1l0.1-0.2l-0.2,0.1c-2.6,1.4-9.5,2.9-18,2.9h-1.8
							c-7.5,0-15.6-0.8-19.5-3l-0.1,0.1l1.7,2.4C19.6,62.3,27.1,63.2,34.2,63.2L34.2,63.2c-7.1-0.1-14.6-1-17.8-2.7L14.7,58l0,0l0,0
							c3.9,2.2,12,2.9,19.6,3h1.8c8.4,0,15.3-1.5,18.1-2.9l0,0l0,0L53,60.2C49.9,61.8,42.8,63,34.7,63h-0.4L34.2,63.2L34.2,63.2z"/>
						<path class="st4" d="M34.3,61.4c-5.3,0-9.4-0.2-13.1-0.9c-3.4-0.6-5.7-1.7-7-2.4L14,57.5c0.6,0.5,3.6,1.6,7.3,2.3
							c3.6,0.6,7.6,0.9,13,0.9c4.7,0,9.2-0.2,12.8-0.9s6.3-1.5,7.4-2.2l-0.3,0.8c-0.4,0.5-3.7,1.4-7,2.1
							C43.5,61.2,39.1,61.4,34.3,61.4z M34.3,63.3c-4.8,0-9.1-0.3-12.6-0.9c-2.4-0.5-4.2-1.1-5.4-1.7L15.8,60
							c0.9,0.6,2.6,1.3,5.9,1.9c3.4,0.6,7.7,0.9,12.5,0.9c4.5,0,8.7-0.3,12.2-0.9c2.9-0.5,6.3-1.4,7.1-2.4l-0.3,0.9
							c-1,0.7-3.7,1.6-6.4,2.1C43.2,63.1,38.9,63.3,34.3,63.3L34.3,63.3z"/>
						<path class="st5" d="M34.3,61.4L34.3,61.4c-5.3-0.1-9.4-0.3-13.1-0.9c-3.4-0.6-5.7-1.7-6.9-2.4l-0.2-0.4l0,0l0,0
							c0.7,0.5,3.6,1.7,7.3,2.4C24.8,60.7,28.9,61,34,61h0.4h0.2c4.6,0,9-0.2,12.6-0.9c3.6-0.7,6.3-1.5,7.5-2.2l0,0l0,0l-0.5,0.5
							c-0.4,0.5-3.7,1.4-7,2c-3.6,0.6-8,0.9-12.7,0.9L34.3,61.4L34.3,61.4L34.3,61.4l0.2,0.1c4.7,0,9.1-0.3,12.7-0.9
							c3.4-0.6,6.6-1.5,7.1-2.1l0.4-0.6l-0.1-0.1c-1.1,0.7-3.9,1.5-7.4,2.2s-7.9,0.9-12.6,0.9h-0.2H34c-5.1,0-9.1-0.3-12.6-0.9
							c-3.8-0.7-6.6-1.9-7.2-2.3l-0.1,0.1l0.2,0.5c1.3,0.7,3.7,1.8,7,2.4C24.9,61.3,29.1,61.5,34.3,61.4L34.3,61.4z M34.3,63.3
							c-4.8,0-9.1-0.3-12.5-0.9c-2.4-0.5-4.1-1.1-5.3-1.7L16.1,60l0,0l0,0c0.9,0.6,2.6,1.3,5.9,1.9c3.4,0.6,7.7,0.9,12.5,0.9
							c4.5,0,8.7-0.3,12.2-0.9c2.9-0.5,6.3-1.4,7.2-2.4l0,0h-0.1l-0.5,0.8c-0.9,0.7-3.7,1.5-6.4,2.1c-3.5,0.6-7.7,0.9-12.2,0.9
							L34.3,63.3L34.3,63.3l0.2,0.1c4.5,0,8.8-0.2,12.2-0.9c2.7-0.5,5.5-1.4,6.4-2.1l0.5-0.8l-0.1-0.1c-0.8,1-4.2,1.9-7.1,2.4
							c-3.5,0.6-7.7,0.8-12.2,0.9c-4.7,0-9-0.3-12.5-0.9c-3.3-0.6-5-1.3-5.9-1.9h-0.1l0.5,0.7c1.2,0.7,2.9,1.2,5.4,1.7
							C25,63.1,29.4,63.4,34.3,63.3L34.3,63.3L34.3,63.3z"/>
						<path class="st4" d="M34.5,52.3c7.6-0.1,17.1-1.1,22.6-3.3v-1.9c-3.3,1.8-13.9,3-22.6,3.1c-10.3-0.1-18.6-1.5-22.2-4l-0.1,2.4
							C18.8,51.7,25.7,52.3,34.5,52.3L34.5,52.3z"/>
						<path class="st5" d="M34.5,52.4c7.6-0.1,17.1-1.1,22.6-3.3l0,0v-1.9v-0.1H57c-3.2,1.9-14,3-22.6,3.2
							c-10.3-0.1-18.6-1.5-22.2-4L12,46.2l-0.1,2.6l0,0l0,0C18.8,51.8,25.7,52.4,34.5,52.4L34.5,52.4c-8.8-0.1-15.6-0.7-22.4-3.7
							l0,0h0.1l0.1-2.4h-0.1l0,0c3.7,2.5,12,3.9,22.2,4C43,50.1,53.8,49,57,47.2l0,0l0,0v1.9h0.1l0,0C51.7,51.3,42.2,52.3,34.5,52.4
							L34.5,52.4L34.5,52.4z"/>
						<path class="st4" d="M57.3,49.2c-0.2,0.3-3.8,1.5-8.9,2.4c-3.6,0.5-8.1,1-13.8,1c-5.5,0-10-0.4-13.3-0.8
							c-5.5-0.9-8.3-2.1-9.3-2.5v-0.5c3,1.2,6.1,1.9,9.4,2.4c3.4,0.5,7.7,0.9,13.2,0.8c5.7,0,10.3-0.5,13.8-1c5.3-0.9,8.6-2,9-2.5
							L57.3,49.2L57.3,49.2z"/>
						<path class="st5" d="M57.3,49.2L57.3,49.2c-0.2,0.2-3.8,1.5-8.9,2.4c-3.6,0.5-8.1,1-13.8,1h-0.1c-5.4,0-9.8-0.4-13.1-0.8
							c-5.5-0.9-8.2-2.1-9.3-2.5l0,0H12v-0.5h-0.1l0,0c3,1.2,6.1,1.9,9.4,2.4c3.3,0.5,7.7,0.8,13,0.8h0.3c5.7,0,10.3-0.5,13.8-1
							c5.4-0.9,8.6-2,9-2.5l0,0h-0.1V49.2L57.3,49.2L57.3,49.2L57.3,49.2L57.3,49.2l0.1-0.7v-0.2l-0.1,0.1c-0.4,0.5-3.7,1.6-9,2.5
							c-3.6,0.5-8,1-13.8,1h-0.3c-5.3,0-9.7-0.4-12.9-0.8c-3.4-0.5-6.4-1.2-9.3-2.4h-0.1v0.6l0,0l0,0c1,0.4,3.9,1.6,9.3,2.5
							c3.4,0.5,7.7,0.8,13.1,0.8h0.1c5.7,0,10.4-0.5,13.9-1C53.5,50.7,57.1,49.5,57.3,49.2L57.3,49.2L57.3,49.2L57.3,49.2z"/>
						<path class="st4" d="M57.3,49.2c-0.2,0.3-3.8,1.5-8.9,2.4c-3.6,0.5-8.1,1-13.8,1c-5.5,0-10-0.4-13.3-0.8
							c-5.5-0.9-8.3-2.1-9.3-2.5v-0.5c3,1.2,6.1,1.9,9.4,2.4c3.4,0.5,7.7,0.9,13.2,0.8c5.7,0,10.3-0.5,13.8-1c5.3-0.9,8.6-2,9-2.5
							L57.3,49.2L57.3,49.2z M57.3,47.1c-0.6,0.5-4.5,1.5-9.6,2.3c-3.4,0.5-7.7,0.9-13.2,0.9c-5.2,0-9.4-0.3-12.7-0.8
							c-5.2-0.7-10-3-10-3v-0.7c0,0,4.8,2.4,10,3.1c3.3,0.5,7.5,0.8,12.7,0.8c5.5,0,9.8-0.4,13.1-0.9c5.1-0.7,9.2-2,9.7-2.3V47.1z"
							/>
						<path class="st5" d="M57.3,49.2L57.3,49.2c-0.2,0.2-3.8,1.5-8.9,2.4c-3.6,0.5-8.1,1-13.8,1h-0.1c-5.4,0-9.8-0.4-13.1-0.8
							c-5.5-0.9-8.2-2.1-9.3-2.5l0,0H12v-0.5h-0.1l0,0c3,1.2,6.1,1.9,9.4,2.4c3.3,0.5,7.7,0.8,13,0.8h0.3c5.7,0,10.3-0.5,13.8-1
							c5.4-0.9,8.6-2,9-2.5l0,0h-0.1V49.2L57.3,49.2L57.3,49.2L57.3,49.2L57.3,49.2l0.1-0.7v-0.2l-0.1,0.1c-0.4,0.5-3.7,1.6-9,2.5
							c-3.6,0.5-8,1-13.8,1h-0.3c-5.3,0-9.7-0.4-12.9-0.8c-3.4-0.5-6.4-1.2-9.3-2.4h-0.1v0.6l0,0l0,0c1,0.4,3.9,1.6,9.3,2.5
							c3.4,0.5,7.7,0.8,13.1,0.8h0.1c5.7,0,10.4-0.5,13.9-1C53.5,50.7,57.1,49.5,57.3,49.2L57.3,49.2L57.3,49.2L57.3,49.2z
							 M57.3,47.1L57.3,47.1c-0.6,0.4-4.5,1.4-9.6,2.3c-3.4,0.5-7.7,0.9-13.2,0.9h-0.3c-5.1,0-9.2-0.3-12.4-0.8
							c-5.1-0.7-9.9-2.9-10-2.9l0,0h0.1v-0.7h-0.1l0,0c0,0,4.8,2.4,10.1,3.3C25,49.6,29.3,50,34.4,50h0.2c5.5,0,9.8-0.4,13.1-0.9
							c5.1-0.7,9.2-2,9.7-2.4l0,0h-0.1L57.3,47.1L57.3,47.1L57.3,47.1L57.3,47.1L57.3,47.1l0.1-0.6v-0.1l-0.1,0.1
							c-0.4,0.3-4.6,1.6-9.7,2.3c-3.4,0.5-7.6,0.9-13.1,0.9h-0.2c-5.1,0-9.3-0.3-12.5-0.8c-5.2-0.7-10-3.1-10-3.1h-0.1v0.8l0,0l0,0
							c0,0,4.8,2.3,10,3c3.1,0.5,7.3,0.8,12.5,0.8h0.3c5.5,0,9.9-0.4,13.2-0.9C52.8,48.8,56.6,47.7,57.3,47.1L57.3,47.1L57.3,47.1
							L57.3,47.1z"/>
						<path class="st4" d="M34.6,40.8c6.8,0,15.2-0.9,20.1-2.8l-1-1.7c-2.8,1.6-11.4,2.6-19.1,2.7c-9.2-0.1-15.7-0.9-19-3.1l-1,1.8
							C20.6,40.2,26.7,40.8,34.6,40.8L34.6,40.8z"/>
						<path class="st5" d="M34.6,40.8c6.8,0,15.2-0.9,20.1-2.8h0.1l-1.1-1.7l0,0l0,0c-2.8,1.5-11.4,2.5-19.2,2.7
							c-9.2-0.1-15.7-0.9-19-3.1l0,0l-1,1.8v0.1h0.1C20.6,40.3,26.7,40.8,34.6,40.8L34.6,40.8c-7.9-0.1-14-0.7-20-3.1l0,0l0,0l1-1.8
							l0,0l0,0c3.3,2.2,9.8,3,19,3.1c7.8-0.2,16.3-1.2,19.2-2.8l0,0l0,0l1,1.7l0,0l0,0C49.9,39.8,41.5,40.7,34.6,40.8L34.6,40.8
							L34.6,40.8z"/>
						<path class="st4" d="M55,38c-0.2,0.3-3.4,1.3-8,2.1c-3.1,0.5-7.3,0.9-12.4,0.9c-4.9,0-8.8-0.3-11.9-0.7
							c-4.9-0.8-7.4-1.8-8.3-2.2l0.2-0.5c2.7,1.1,5.3,1.7,8.2,2.1c3,0.4,7,0.7,11.8,0.7c5.1,0,9.2-0.4,12.4-0.9
							c4.8-0.8,7.4-1.7,7.7-2.2L55,38z M54.1,36.3c-0.5,0.4-3.1,1.3-7.6,2c-3,0.4-6.9,0.8-11.8,0.8c-4.7,0-8.5-0.3-11.4-0.7
							c-4.6-0.6-7.1-1.7-7.9-2l0.3-0.4c0.7,0.3,3,1.3,7.7,1.9c2.8,0.4,6.7,0.7,11.4,0.7c4.9,0,8.7-0.4,11.7-0.8
							c4.6-0.6,7-1.8,7.4-2.1L54.1,36.3L54.1,36.3z"/>
						<path class="st5" d="M55,38L55,38c-0.2,0.2-3.4,1.3-8,2.1c-3.1,0.5-7.3,0.9-12.4,0.9h-0.1c-4.8,0-8.7-0.3-11.8-0.7
							c-4.9-0.8-7.4-1.8-8.3-2.2l0,0l0,0l0.2-0.5l0,0l0,0c2.7,1.1,5.3,1.7,8.2,2.2c3,0.4,7,0.7,11.8,0.7c5.1,0,9.2-0.4,12.4-0.9
							c4.8-0.8,7.4-1.7,7.8-2.2l0,0l0,0L55,38L55,38L55,38L55,38L55,38l-0.3-0.6v-0.1v0.1c-0.3,0.4-2.9,1.4-7.7,2.2
							c-3.1,0.5-7.2,0.9-12.4,0.9c-4.9,0-8.8-0.3-11.8-0.7c-2.9-0.5-5.5-1.1-8.2-2.1l0,0l-0.2,0.5l0,0h0.1c0.9,0.4,3.5,1.4,8.3,2.2
							c2.9,0.4,6.9,0.7,11.8,0.7h0.1c5.2,0,9.2-0.4,12.5-0.9C51.7,39.4,54.8,38.3,55,38L55,38L55,38L55,38z M54.1,36.3
							c-0.5,0.4-3,1.3-7.6,2c-3,0.4-6.9,0.8-11.8,0.8h-0.2c-4.6,0-8.3-0.3-11.3-0.7c-4.6-0.6-7-1.7-7.9-2v0.1l0,0l0.3-0.4l0,0l0,0
							c0.7,0.3,3,1.3,7.7,1.9c2.8,0.4,6.7,0.7,11.4,0.7c4.9,0,8.7-0.4,11.7-0.8c4.6-0.6,7-1.8,7.4-2.1l0,0l0,0L54.1,36.3L54.1,36.3
							l-0.2-0.5v-0.1l0,0c-0.4,0.3-2.8,1.4-7.4,2c-3,0.4-6.8,0.8-11.7,0.8c-4.7,0-8.5-0.3-11.4-0.7c-4.7-0.7-7-1.6-7.7-1.9l0,0
							l-0.3,0.5v0.1h0.1c0.9,0.3,3.4,1.4,7.9,2c2.8,0.4,6.7,0.7,11.3,0.7h0.2c4.9,0,8.8-0.4,11.8-0.8C51,37.7,53.6,36.8,54.1,36.3
							L54.1,36.3z"/>
						<path class="st4" d="M34.5,25.7c-12.2,0-22,9.9-22,22s9.9,22,22,22s22-9.9,22-22S46.7,25.7,34.5,25.7z M34.5,67.7
							c-11,0-19.9-8.9-19.9-19.9s8.9-19.9,19.9-19.9s19.9,8.9,19.9,19.9C54.5,58.7,45.6,67.7,34.5,67.7z"/>
						<path class="st4" d="M56.8,47.7C56.8,60,46.9,70,34.6,70S12.4,60,12.4,47.7s10-22.2,22.2-22.2C46.8,25.4,56.8,35.5,56.8,47.7z
							 M34.5,25.9c-12.1,0-21.8,9.8-21.8,21.8s9.8,21.8,21.8,21.8s21.8-9.8,21.8-21.8S46.6,25.9,34.5,25.9z"/>
						<path class="st5" d="M56.8,47.7L56.8,47.7C56.7,60,46.9,69.9,34.6,70c-12.3,0-22.1-10-22.2-22.2c0-12.3,10-22.1,22.2-22.2
							C46.8,25.5,56.7,35.5,56.8,47.7L56.8,47.7L56.8,47.7c0.1-12.3-10-22.4-22.2-22.4s-22.4,10-22.4,22.4c0,12.3,10,22.4,22.4,22.4
							C46.9,70,56.8,60,56.8,47.7L56.8,47.7z M34.5,25.9L34.5,25.9c-12.1-0.1-21.8,9.8-21.8,21.8s9.9,21.8,21.8,21.8
							c12.1,0,21.8-9.8,21.8-21.8C56.4,35.7,46.6,25.8,34.5,25.9L34.5,25.9L34.5,25.9c12,0.1,21.7,9.8,21.7,21.8
							s-9.8,21.7-21.7,21.7s-21.7-9.8-21.7-21.7C12.8,35.7,22.5,26,34.5,25.9L34.5,25.9z"/>
						<path class="st4" d="M54.7,47.7c0,11.2-9,20.1-20.1,20.1c-11.2,0-20.1-9-20.1-20.1c0-11.2,9-20.1,20.1-20.1
							C45.7,27.5,54.7,36.6,54.7,47.7z M34.5,28c-10.9,0-19.7,8.8-19.7,19.7s8.8,19.7,19.7,19.7s19.7-8.8,19.7-19.7S45.4,28,34.5,28
							z"/>
						<path class="st5" d="M54.7,47.7L54.7,47.7c-0.1,11.1-9,20.1-20.1,20.1s-20.1-9-20.1-20.1s8.9-20.1,20.1-20.1
							C45.7,27.6,54.6,36.6,54.7,47.7L54.7,47.7L54.7,47.7c0.1-11.2-8.9-20.2-20.1-20.2s-20.2,9-20.2,20.2S23.4,68,34.6,68
							C45.7,68,54.7,58.8,54.7,47.7L54.7,47.7z M34.5,28L34.5,28c-10.9-0.1-19.7,8.7-19.7,19.7c0,10.9,8.8,19.7,19.8,19.7
							c10.9,0,19.8-8.8,19.8-19.7C54.3,36.8,45.5,27.9,34.5,28L34.5,28L34.5,28c10.9,0,19.7,8.8,19.7,19.7s-8.8,19.6-19.6,19.6
							C23.7,67.4,15,58.5,15,47.7C14.9,36.9,23.7,28,34.5,28L34.5,28z"/>
						<path class="st4" d="M34.3,43c9.2,0,19,1.3,22.7,3.3v2.4C53.7,47,44.8,45,34.3,45.3c-8.5,0.1-17.7,1-22.2,3.5V46
							C15.9,44,26.3,43,34.3,43L34.3,43z"/>
						<path class="st5" d="M34.3,43.1h0.5c9.1,0,18.6,1.3,22.1,3.3l0,0h-0.1v2.4H57l0,0c-3-1.6-11.1-3.4-20.6-3.4c-0.7,0-1.4,0-2,0
							c-8.5,0.1-17.7,0.9-22.2,3.5l0,0h0.1v-2.7H12l0,0C15.9,44.1,26.4,43.1,34.3,43.1L34.3,43.1C26.3,43,15.9,44,12,46l0,0v2.8V49
							h0.1c4.6-2.4,13.6-3.4,22.1-3.5c0.7,0,1.4,0,2,0c9.6,0,17.6,1.7,20.6,3.4h0.1v-2.4l0,0l0,0c-3.7-1.9-13.1-3.3-22.2-3.3
							L34.3,43.1L34.3,43.1z"/>
						<path class="st4" d="M34.4,45c5.3,0,10.4,0.3,14.5,1c3.8,0.7,7.8,1.8,8.3,2.3V49c-1.2-0.8-4.4-1.7-8.4-2.5
							c-4.1-0.8-9.1-1-14.4-1c-6,0-10.7,0.3-14.6,1c-4.2,0.8-7.2,1.9-7.9,2.5v-0.7c1.4-0.7,4.1-1.6,7.8-2.3
							C23.8,45.2,28.5,45,34.4,45z M34.4,42.8c5.1,0,10.1,0.3,14,1c3,0.6,7.7,1.5,8.8,2.4v0.9c-1-1.1-5.8-2.2-9-2.8
							c-3.9-0.7-8.6-0.9-13.7-1c-5.3,0-10.3,0.3-14,1S13,45.8,12,46.5v-0.8c1.4-0.7,5.7-1.4,8.4-1.9C24.1,43.2,29.1,42.8,34.4,42.8
							L34.4,42.8z"/>
						<path class="st5" d="M34.4,45L34.4,45l0.3,0.1c5.2,0,10.2,0.3,14.1,1c3.8,0.7,7.8,1.8,8.3,2.3l0,0H57v0.7h0.2l0,0
							c-1.3-0.8-4.4-1.8-8.4-2.5s-8.9-1-14-1h-0.4h-0.5c-5.7,0-10.2,0.3-14.1,1c-4.3,0.8-7.2,1.9-8,2.5l0,0h0.1v-0.7h-0.1l0,0
							c1.4-0.7,4.1-1.6,7.8-2.3C23.8,45.3,28.5,45.1,34.4,45L34.4,45L34.4,45c-5.9,0-10.6,0.2-14.7,1c-3.8,0.7-6.4,1.5-7.8,2.3l0,0
							v0.8v0.1l0.1-0.1c0.7-0.5,3.8-1.7,7.9-2.4c3.9-0.7,8.3-1,14-1h0.5h0.4c5.1,0,10.1,0.3,14,1c4,0.8,7.1,1.7,8.4,2.5l0.1,0.1
							v-0.8l0,0l0,0c-0.6-0.6-4.6-1.7-8.3-2.4c-4-0.7-8.9-1-14.1-1L34.4,45L34.4,45z M34.4,42.9h0.3c5,0,9.9,0.3,13.6,1
							c3,0.6,7.7,1.5,8.8,2.4l0,0H57v0.9h0.2l0,0c-1-1.1-5.8-2.2-9.1-2.8c-3.9-0.7-8.6-0.9-13.7-1c-5.3,0-10.3,0.3-14,1
							s-7.5,1.5-8.5,2.2l0,0H12v-0.8h-0.1l0,0c1.3-0.7,5.6-1.4,8.4-1.9C24.1,43.2,29.1,42.9,34.4,42.9L34.4,42.9
							c-5.4-0.1-10.3,0.2-14.1,0.9c-2.8,0.5-7,1.2-8.4,1.9l0,0v0.8v0.1l0.1-0.1c1-0.6,4.9-1.5,8.5-2.2c3.9-0.7,8.7-1,14-1
							c5.1,0,9.9,0.3,13.7,1c3.4,0.6,8.1,1.7,9,2.7l0.1,0.1V46l0,0l0,0c-1.1-0.9-5.8-1.8-8.8-2.4c-3.9-0.7-8.7-1-13.6-1h-0.3v0.3
							C34.6,42.9,34.4,42.9,34.4,42.9z"/>
						<path class="st4" d="M34.4,32.6c8.3,0,15.6,1.1,18.9,2.8l1.2,2.1c-2.8-1.5-10.8-3.1-20.1-2.9c-7.6,0-15.8,0.8-19.9,3l1.4-2.4
							C19.4,33.5,27.3,32.6,34.4,32.6L34.4,32.6z"/>
						<path class="st5" d="M34.4,32.7h0.5c8.1,0,15.2,1.2,18.5,2.8l1.2,2l0,0l0,0c-2.7-1.4-9.8-2.9-18.3-2.9h-1.9
							c-7.6,0-15.8,0.8-20,3l0,0l0,0l1.4-2.4C19.4,33.6,27.3,32.7,34.4,32.7L34.4,32.7c-7.2-0.1-15.1,0.8-18.5,2.5l-1.4,2.4
							l-0.1,0.1l0.2-0.1c4.1-2.2,12.3-2.9,19.9-3h1.9c8.5,0,15.5,1.5,18.2,2.9l0.2,0.1l-1.3-2.2c-3.4-1.7-10.5-2.8-18.6-2.8
							L34.4,32.7L34.4,32.7L34.4,32.7z"/>
						<path class="st4" d="M34.5,34.3c4.8,0,9.3,0.3,13,0.9c3.4,0.6,6.6,1.6,7.1,2.1L55,38c-1.1-0.7-4-1.5-7.5-2.2
							c-3.7-0.7-8.2-0.9-12.9-0.9c-5.4,0-9.5,0.3-13.1,0.9c-3.8,0.7-6.4,1.7-7,2.2l0.4-0.7c1.2-0.6,3.3-1.4,6.6-2
							C25,34.5,29.2,34.3,34.5,34.3z M34.5,32.4c4.6,0,9,0.2,12.5,0.9c2.7,0.5,5.5,1.4,6.5,2.1l0.5,0.8c-0.9-1-4.3-1.9-7.2-2.4
							c-3.5-0.6-7.7-0.8-12.3-0.9c-4.8,0-9.1,0.3-12.6,0.9c-3.3,0.6-5.3,1.4-6.2,1.9l0.4-0.7c1.2-0.6,3.3-1.2,5.7-1.7
							C25.4,32.7,29.7,32.4,34.5,32.4L34.5,32.4z"/>
						<path class="st5" d="M34.5,34.3L34.5,34.3l0.3,0.1c4.7,0,9,0.3,12.7,0.9c3.4,0.6,6.6,1.6,7.1,2l0.3,0.6l0,0l0,0
							c-1.1-0.7-4-1.5-7.5-2.2c-3.6-0.7-7.9-0.9-12.5-0.9h-0.4H34c-5.1,0-9.1,0.3-12.6,0.9c-3.8,0.7-6.4,1.7-7.1,2.2l0,0l0,0
							l0.4-0.7c1.2-0.6,3.3-1.4,6.6-2C25,34.6,29.2,34.4,34.5,34.3L34.5,34.3L34.5,34.3c-5.3,0-9.6,0.2-13.2,0.8
							c-3.4,0.6-5.4,1.4-6.6,2l-0.4,0.7l0.1,0.1c0.6-0.5,3.3-1.5,7-2.1c3.5-0.6,7.4-0.9,12.6-0.9h0.5h0.4c4.6,0,9,0.2,12.5,0.9
							c3.6,0.7,6.4,1.5,7.5,2.2H55l-0.4-0.6c-0.5-0.5-3.8-1.5-7.1-2.1c-3.6-0.6-8-0.9-12.7-0.9L34.5,34.3L34.5,34.3z M34.5,32.5h0.2
							c4.5,0,8.9,0.2,12.4,0.9c2.7,0.5,5.5,1.4,6.5,2.1l0.5,0.8l0,0l0,0c-0.9-1-4.3-1.9-7.3-2.4c-3.5-0.6-7.8-0.8-12.3-0.9
							c-4.8,0-9.2,0.3-12.6,0.9c-3.3,0.6-5.4,1.3-6.3,1.9l0,0l0,0l0.4-0.7c1.2-0.6,3.1-1.2,5.7-1.7C25.4,32.8,29.7,32.5,34.5,32.5
							L34.5,32.5c-4.8-0.1-9.2,0.2-12.7,0.8c-2.5,0.5-4.5,1.1-5.8,1.7l-0.4,0.7l0.1,0.1c0.9-0.6,2.9-1.3,6.2-1.9
							c3.5-0.6,7.8-0.9,12.6-0.9c4.6,0,8.8,0.3,12.3,0.9c2.9,0.5,6.3,1.5,7.2,2.4l0.1-0.1l-0.5-0.8c-1-0.8-3.8-1.6-6.5-2.1
							c-3.5-0.6-7.9-0.9-12.4-0.9L34.5,32.5C34.5,32.4,34.5,32.5,34.5,32.5z"/>
						<path class="st4" d="M34.5,34.3c4.8,0,9.3,0.3,13,0.9c3.4,0.6,6.6,1.6,7.1,2.1L55,38c-1.1-0.7-4-1.5-7.5-2.2
							c-3.7-0.7-8.2-0.9-12.9-0.9c-5.4,0-9.5,0.3-13.1,0.9c-3.8,0.7-6.4,1.7-7,2.2l0.4-0.7c1.2-0.6,3.3-1.4,6.6-2
							C25,34.5,29.2,34.3,34.5,34.3z M34.5,32.4c4.6,0,9,0.2,12.5,0.9c2.7,0.5,5.5,1.4,6.5,2.1l0.5,0.8c-0.9-1-4.3-1.9-7.2-2.4
							c-3.5-0.6-7.7-0.8-12.3-0.9c-4.8,0-9.1,0.3-12.6,0.9c-3.3,0.6-5.3,1.4-6.2,1.9l0.4-0.7c1.2-0.6,3.3-1.2,5.7-1.7
							C25.4,32.7,29.7,32.4,34.5,32.4z"/>
						<path class="st5" d="M34.5,34.3L34.5,34.3l0.3,0.1c4.7,0,9,0.3,12.7,0.9c3.4,0.6,6.6,1.6,7.1,2l0.3,0.6l0,0l0,0
							c-1.1-0.7-4-1.5-7.5-2.2c-3.6-0.7-7.9-0.9-12.5-0.9h-0.4H34c-5.1,0-9.1,0.3-12.6,0.9c-3.8,0.7-6.4,1.7-7.1,2.2l0,0l0,0
							l0.4-0.7c1.2-0.6,3.3-1.4,6.6-2C25,34.6,29.2,34.4,34.5,34.3L34.5,34.3L34.5,34.3c-5.3,0-9.6,0.2-13.2,0.8
							c-3.4,0.6-5.4,1.4-6.6,2l-0.4,0.7l0.1,0.1c0.6-0.5,3.3-1.5,7-2.1c3.5-0.6,7.4-0.9,12.6-0.9h0.5h0.4c4.6,0,9,0.2,12.5,0.9
							c3.6,0.7,6.4,1.5,7.5,2.2H55l-0.4-0.6c-0.5-0.5-3.8-1.5-7.1-2.1c-3.6-0.6-8-0.9-12.7-0.9L34.5,34.3L34.5,34.3z M34.5,32.4
							L34.5,32.4l0.2,0.1c4.5,0,8.9,0.2,12.4,0.9c2.7,0.5,5.5,1.4,6.5,2.1l0.5,0.8l0,0l0,0c-0.9-1-4.3-1.9-7.3-2.4
							c-3.5-0.6-7.8-0.8-12.3-0.9c-4.8,0-9.2,0.3-12.6,0.9c-3.3,0.6-5.4,1.3-6.3,1.9l0,0l0,0l0.4-0.7c1.2-0.6,3.1-1.2,5.7-1.7
							C25.4,32.8,29.7,32.5,34.5,32.4L34.5,32.4L34.5,32.4c-4.8,0-9.2,0.2-12.7,0.9c-2.5,0.5-4.5,1.1-5.8,1.7l-0.4,0.7l0.1,0.1
							c0.9-0.6,2.9-1.3,6.2-1.9c3.5-0.6,7.8-0.9,12.6-0.9c4.6,0,8.8,0.3,12.3,0.9c2.9,0.5,6.3,1.5,7.2,2.4l0.1-0.1l-0.5-0.8
							c-1-0.8-3.8-1.6-6.5-2.1c-3.5-0.6-7.9-0.9-12.4-0.9L34.5,32.4L34.5,32.4z"/>
						<path class="st4" d="M34.4,54.9c6.8,0,15.2,0.9,20.1,2.8l-1,1.7c-2.8-1.6-11.4-2.6-19.1-2.7c-9.2,0.1-15.6,1-18.8,2.8L14.7,58
							C20.4,55.5,26.5,54.9,34.4,54.9L34.4,54.9z"/>
						<path class="st5" d="M34.4,55c6.8,0,15.2,0.9,20.1,2.8l0,0l0,0l-1,1.7l0,0l0,0c-2.9-1.6-11.4-2.6-19.2-2.8
							c-9.2,0.1-15.6,1-18.8,2.8l0,0l0,0L14.6,58l0,0l0,0C20.4,55.5,26.5,55,34.4,55L34.4,55c-7.9-0.1-14,0.5-19.7,3h-0.1l0.9,1.5
							l0,0l0,0c3.1-1.8,9.5-2.7,18.8-2.8c7.8,0.2,16.3,1.2,19.1,2.7l0,0l1.1-1.7v-0.1h-0.1c-4.9-1.9-13.3-2.8-20.1-2.8L34.4,55
							L34.4,55z"/>
						<path class="st4" d="M54.5,57.7l-0.3,0.6c-0.4-0.5-2.9-1.4-7.7-2.2c-3.1-0.5-7.2-0.9-12.3-0.9c-4.9,0-8.7,0.3-11.8,0.7
							c-2.9,0.5-5.5,1.1-8.1,2.1l-0.2-0.5c0.9-0.4,3.5-1.4,8.3-2.2c3-0.4,7-0.7,11.9-0.7c5.1,0,9.2,0.4,12.4,0.9
							C51.3,56.4,54.4,57.5,54.5,57.7z M52.9,59.7c-0.9-0.5-3.3-1.3-7-1.8c-3-0.4-6.8-0.8-11.7-0.8c-4.7,0-8.4,0.3-11.3,0.7
							c-4.7,0.7-7,1.6-7.7,1.9l-0.3-0.4c0.9-0.3,3.4-1.4,7.9-2c2.8-0.4,6.7-0.7,11.4-0.7c4.9,0,8.7,0.4,11.8,0.8
							c3.8,0.6,6.2,1.3,7.1,1.8L52.9,59.7z"/>
						<path class="st5" d="M54.5,57.7L54.5,57.7l-0.3,0.6l0,0l0,0c-0.4-0.5-2.9-1.5-7.7-2.2c-3.1-0.5-7.2-0.9-12.3-0.9h-0.1
							c-4.8,0-8.6,0.4-11.6,0.7C19.6,56.4,17,57,14.4,58l0,0l0,0l-0.2-0.5l0,0l0,0c0.9-0.4,3.5-1.4,8.3-2.2
							c2.9-0.4,6.9-0.7,11.7-0.7h0.1c5.1,0,9.2,0.4,12.4,0.9C51.2,56.4,54.4,57.5,54.5,57.7L54.5,57.7L54.5,57.7L54.5,57.7
							L54.5,57.7c-0.2-0.3-3.3-1.4-7.9-2.2c-3.1-0.5-7.2-0.9-12.4-0.9h-0.1c-4.8,0-8.7,0.3-11.7,0.7c-4.9,0.8-7.4,1.8-8.3,2.2H14
							l0.2,0.5l0,0l0,0c2.6-1,5.2-1.7,8.1-2.1c2.9-0.4,6.8-0.7,11.6-0.7H34c5.1,0,9.1,0.4,12.3,0.9c4.8,0.7,7.3,1.7,7.7,2.2v0.1
							L54.5,57.7L54.5,57.7L54.5,57.7L54.5,57.7z M52.9,59.7L52.9,59.7c-0.9-0.5-3.3-1.4-6.9-1.9c-3-0.4-6.8-0.8-11.7-0.8h-0.2
							c-4.6,0-8.3,0.3-11.2,0.7c-4.7,0.7-7,1.6-7.7,1.9l0,0l0,0l-0.3-0.4l0,0l0,0c0.9-0.3,3.4-1.4,7.9-2c2.8-0.4,6.6-0.7,11.2-0.7
							h0.2c4.9,0,8.7,0.4,11.8,0.8c3.8,0.6,6.1,1.3,7.1,1.8l0,0l0,0L52.9,59.7L52.9,59.7L52.9,59.7L52.9,59.7L52.9,59.7l0.3-0.5l0,0
							v-0.1c-1-0.5-3.5-1.2-7.2-1.8c-3-0.4-6.8-0.8-11.8-0.8H34c-4.6,0-8.3,0.3-11.2,0.7c-4.6,0.6-7,1.7-7.9,2h-0.1l0.3,0.5l0,0l0,0
							c0.7-0.3,3-1.3,7.7-1.9c2.8-0.4,6.6-0.7,11.2-0.7h0.2c4.9,0,8.6,0.4,11.7,0.8C49.6,58.5,52,59.3,52.9,59.7L52.9,59.7
							L52.9,59.7L52.9,59.7z"/>
						<rect x="35.4" y="25.3" class="st4" width="0.5" height="44.7"/>
						<polygon class="st5" points="35.9,70.1 35.9,70 35.5,70 35.5,25.4 35.8,25.4 35.8,70.1 35.9,70.1 35.9,70 35.9,70.1 
							35.9,70.1 35.9,25.3 35.4,25.3 35.4,25.3 35.4,70.1 						"/>
						<rect x="33.2" y="25.3" class="st4" width="0.5" height="44.7"/>
						<polygon class="st5" points="33.7,70.1 33.7,70 33.3,70 33.3,25.4 33.6,25.4 33.6,70.1 33.7,70.1 33.7,70 33.7,70.1 
							33.7,70.1 33.7,25.3 33.2,25.3 33.1,25.3 33.1,70.1 						"/>
						<rect x="33.7" y="25.6" class="st4" width="1.7" height="44.3"/>
						<polygon class="st5" points="35.4,69.9 35.4,69.8 33.7,69.8 33.7,25.6 35.4,25.6 35.4,69.9 35.4,69.9 35.4,69.8 35.4,69.9 
							35.5,69.9 35.5,25.5 33.7,25.5 33.6,25.5 33.6,69.9 35.4,69.9 35.5,69.9 35.5,69.9 						"/>
						<path class="st4" d="M15.8,35.3c6.9-0.1,38.6,19.4,38.7,23l-1.9,3c-0.9-4.2-33.1-23.2-38.5-22.8L15.8,35.3L15.8,35.3z"/>
						<path class="st5" d="M15.8,35.3L15.8,35.3c7,0,38.6,19.4,38.7,23h0.1l0,0l-1.9,3l0,0h0.1c-0.9-4.2-32.5-22.9-38.3-22.9h-0.2
							v0.1l0,0L15.8,35.3L15.8,35.3l-1.7,3.1v0.1h0.1h0.1c5.7,0,37.4,18.7,38.2,22.8v0.1l2-3.1l0,0l0,0
							c-0.1-3.7-31.7-23.1-38.7-23.1l0,0C15.8,35.2,15.8,35.3,15.8,35.3z"/>
						<path class="st4" d="M13.9,38.4c1.3-0.9,10.7,3.4,20.5,9.2c9.8,5.9,19.1,12.7,18.3,13.9L52.4,62l-0.1,0.1v-0.6
							c-0.4-1.3-7-6.7-18.1-13.3C23.4,41.7,14.5,37.8,13.6,39L13.9,38.4z M54.7,58.4c0.8-1.6-7.9-8.1-18.7-14.5
							c-11.1-6.2-19-10-20.4-8.8l-0.3,0.6l0.1-0.1l0.9-0.2c2.5,0,9.7,3.4,19.7,9c4.4,2.5,18.6,11.7,18.5,14.2L54.4,59L54.7,58.4
							L54.7,58.4z"/>
						<path class="st5" d="M13.9,38.4L13.9,38.4l0.5-0.1c2.4,0,11,4,19.9,9.3c9.3,5.7,18.4,12.1,18.3,13.6v0.2l-0.3,0.4l0,0v-0.5
							c-0.4-1.4-7.1-6.7-18.1-13.4c-9.4-5.6-17.6-9.3-19.9-9.3l-0.7,0.2l0,0l0,0L13.9,38.4L13.9,38.4L13.9,38.4l-0.3,0.5l0.1,0.1
							l0.6-0.2c2.3,0,10.5,3.7,19.9,9.3c11,6.6,17.7,11.9,18,13.2V62v0.2l0.2-0.2l0.3-0.4l0.1-0.2c0-1.7-9-8-18.4-13.7
							c-8.9-5.4-17.6-9.3-20-9.3L13.9,38.4L13.9,38.4z M54.7,58.5l0.1-0.3c0-2-8.4-8.2-18.8-14.3c-9.8-5.5-17.1-9-19.7-9l-0.8,0.2
							l-0.3,0.6l0.1,0.1l0.1-0.1l0.9-0.2c2.4,0,9.7,3.4,19.6,9c4.4,2.5,18.5,11.7,18.5,14.1l0,0L54.3,59h0.1L54.7,58.5L54.7,58.5
							l-0.3,0.3v-0.1l0,0c0-2.6-14.1-11.7-18.5-14.2c-10.1-5.8-17.2-9-19.7-9l-0.9,0.2l-0.1,0.1l0,0l0,0l0.3-0.6l0.7-0.2
							c2.5,0,10,3.6,19.6,9c10.4,6.1,18.7,12.4,18.7,14.2L54.7,58.5L54.7,58.5z"/>
						<path class="st6" d="M21.3,49.9c0,3.7,1.5,6.9,3.9,9.2c2.4,2.4,5.7,4,9.3,4s7-1.5,9.3-3.9c2.4-2.4,3.9-5.7,3.9-9.3V32.3H21.3
							V49.9z"/>
						<path class="st5" d="M21.3,49.9L21.3,49.9c-0.1,3.7,1.4,6.9,3.9,9.3s5.7,4,9.3,4s7-1.5,9.4-3.9s3.9-5.7,3.9-9.3V32.2H21.3
							V49.9L21.3,49.9L21.3,49.9l0.1-17.6h26.3V50c0,3.7-1.5,6.9-3.9,9.2c-2.3,2.3-5.7,3.9-9.3,3.9s-6.9-1.5-9.2-3.9
							C22.8,56.8,21.4,53.5,21.3,49.9L21.3,49.9z"/>
						<path class="st2" d="M21.9,49.9L21.9,49.9c0,3.5,1.4,6.6,3.8,8.9c2.3,2.3,5.5,3.8,8.9,3.8s6.7-1.4,8.9-3.7
							c2.3-2.2,3.8-5.5,3.8-8.9V32.8H21.9V49.9L21.9,49.9z"/>
						<path class="st5" d="M21.8,49.9L21.8,49.9c0,3.5,1.4,6.6,3.8,8.9c2.3,2.3,5.5,3.8,9,3.8s6.7-1.4,9-3.8
							c2.3-2.3,3.8-5.5,3.8-8.9V32.8H21.8V49.9h0.1V32.8h25.2V50c0,3.5-1.4,6.6-3.7,8.8c-2.2,2.2-5.5,3.7-8.9,3.7
							c-3.5,0-6.6-1.4-8.9-3.7C23.2,56.6,21.8,53.4,21.8,49.9L21.8,49.9L21.8,49.9L21.8,49.9z"/>
						<path class="st6" d="M27.1,49.2L27.1,49.2c0,2.2,0.8,4.3,2.2,5.8c1.3,1.5,3.3,2.4,5.3,2.4s4-0.9,5.3-2.4s2.2-3.6,2.2-5.8V38
							h-15L27.1,49.2L27.1,49.2z"/>
						<path class="st5" d="M27,49.2L27,49.2c0,2.2,0.8,4.4,2.2,5.8c1.3,1.5,3.3,2.4,5.4,2.4c2,0,4-0.9,5.4-2.4
							c1.3-1.5,2.2-3.6,2.2-5.8V38H27V49.2h0.1V38.1H42v11.1c0,2.2-0.8,4.3-2.2,5.8c-1.3,1.5-3.3,2.3-5.3,2.3s-3.9-0.9-5.3-2.4
							C27.9,53.3,27,51.3,27,49.2L27,49.2L27,49.2L27,49.2z"/>
						<polygon class="st7" points="32.9,48.1 32.9,48.1 33.4,49.3 34.5,49.9 35.7,49.3 36.2,48.1 36.2,45.6 32.9,45.6 						"/>
						<polygon class="st6" points="35.4,46.1 35.1,46.4 35.4,46.7 35.8,46.4 						"/>
						<polygon class="st6" points="34.5,47 34.2,47.3 34.5,47.6 34.8,47.3 						"/>
						<polygon class="st6" points="35.4,48 35.1,48.3 35.4,48.6 35.8,48.3 						"/>
						<polygon class="st6" points="33.6,48 33.3,48.3 33.6,48.6 34,48.3 						"/>
						<polygon class="st6" points="33.6,46.1 33.3,46.4 33.6,46.7 34,46.4 						"/>
						<polygon class="st7" points="28.2,48.1 28.2,48.1 28.7,49.3 29.9,49.9 31,49.3 31.6,48.1 31.6,45.6 28.2,45.6 						"/>
						<polygon class="st6" points="30.8,46.1 30.4,46.4 30.8,46.7 31.1,46.4 						"/>
						<polygon class="st6" points="29.8,47 29.5,47.3 29.8,47.6 30.2,47.3 						"/>
						<polygon class="st6" points="30.8,48 30.4,48.3 30.8,48.6 31.1,48.3 						"/>
						<polygon class="st6" points="29,48 28.7,48.3 29,48.6 29.3,48.3 						"/>
						<polygon class="st6" points="29,46.1 28.7,46.4 29,46.7 29.3,46.4 						"/>
						<polygon class="st7" points="37.5,48.1 37.5,48.1 38.1,49.3 39.2,49.9 40.4,49.3 40.8,48.1 40.8,45.6 37.5,45.6 						"/>
						<polygon class="st6" points="40.1,46.1 39.8,46.4 40.1,46.7 40.4,46.4 						"/>
						<polygon class="st6" points="39.2,47 38.9,47.3 39.2,47.6 39.5,47.3 						"/>
						<polygon class="st6" points="40.1,48 39.8,48.3 40.1,48.6 40.4,48.3 						"/>
						<polygon class="st6" points="38.3,48 38,48.3 38.3,48.6 38.6,48.3 						"/>
						<polygon class="st6" points="38.3,46.1 38,46.4 38.3,46.7 38.6,46.4 						"/>
						<polygon class="st7" points="32.9,53.6 32.9,53.6 33.4,54.9 34.5,55.5 35.7,54.9 36.2,53.6 36.2,51.2 32.9,51.2 						"/>
						<polygon class="st6" points="35.4,51.7 35.1,52 35.4,52.3 35.8,52 						"/>
						<polygon class="st6" points="34.5,52.6 34.2,52.9 34.5,53.2 34.8,52.9 						"/>
						<polygon class="st6" points="35.4,53.5 35.1,53.8 35.4,54.2 35.8,53.8 						"/>
						<polygon class="st6" points="33.6,53.5 33.3,53.8 33.6,54.2 34,53.8 						"/>
						<polygon class="st6" points="33.6,51.7 33.3,52 33.6,52.3 34,52 						"/>
						<polygon class="st7" points="32.9,42.5 32.9,42.5 33.4,43.7 34.5,44.3 35.7,43.7 36.2,42.5 36.2,40 32.9,40 						"/>
						<polygon class="st6" points="35.4,40.5 35.1,40.8 35.4,41.1 35.8,40.8 						"/>
						<polygon class="st6" points="34.5,41.5 34.2,41.8 34.5,42.1 34.8,41.8 						"/>
						<polygon class="st6" points="35.4,42.4 35.1,42.7 35.4,43 35.8,42.7 						"/>
						<polygon class="st6" points="33.6,42.4 33.3,42.7 33.6,43 34,42.7 						"/>
						<polygon class="st6" points="33.6,40.5 33.3,40.8 33.6,41.1 34,40.8 						"/>
						<polygon class="st4" points="32.7,37.3 36.3,37.3 36.2,35.9 32.9,35.9 						"/>
						<polygon class="st5" points="32.7,37.3 32.7,37.4 36.3,37.4 36.4,37.4 36.2,35.9 36.2,35.9 32.9,35.9 32.8,35.9 32.7,37.3 
							32.7,37.4 32.7,37.4 32.7,37.3 32.8,37.3 32.9,36 36.1,36 36.3,37.2 32.7,37.2 32.7,37.3 32.8,37.3 						"/>
						<polygon class="st4" points="34.5,36 35.4,37.3 33.6,37.3 						"/>
						<polygon class="st5" points="34.5,36.1 35.3,37.2 33.7,37.2 34.6,36.1 34.5,36 33.6,37.3 33.5,37.4 35.4,37.4 35.5,37.4 
							34.6,36 						"/>
						<path class="st4" d="M34.5,36.3c0,0,0.5,0.3,0.5,1h-1C34,36.6,34.5,36.3,34.5,36.3z"/>
						<path class="st5" d="M34.5,36.3L34.5,36.3c0,0,0.5,0.3,0.5,1h0.1v-0.1h-1v0.1h0.1C34.1,36.6,34.6,36.4,34.5,36.3L34.5,36.3
							L34.5,36.3L34.5,36.3L34.5,36.3c0,0-0.6,0.2-0.6,1v0.1H35h0.1v-0.1C35.1,36.6,34.6,36.3,34.5,36.3L34.5,36.3L34.5,36.3
							L34.5,36.3z"/>
						<polygon class="st4" points="32.8,35.3 36.3,35.3 36.5,35.4 36.3,35.6 32.8,35.6 32.6,35.4 						"/>
						<polygon class="st5" points="32.8,35.3 32.8,35.3 36.3,35.3 36.4,35.4 36.3,35.5 32.8,35.5 32.7,35.4 32.8,35.3 32.8,35.3 
							32.8,35.3 32.8,35.3 32.7,35.3 32.6,35.4 32.5,35.4 32.7,35.6 32.7,35.6 36.3,35.6 36.3,35.6 36.5,35.5 36.5,35.4 36.4,35.3 
							36.3,35.2 32.8,35.2 32.7,35.2 32.7,35.3 						"/>
						<polygon class="st4" points="32.7,37.3 36.4,37.3 36.6,37.5 36.4,37.6 32.7,37.6 32.5,37.5 						"/>
						<polygon class="st5" points="32.7,37.3 32.7,37.4 36.4,37.4 36.5,37.5 36.4,37.6 32.7,37.6 32.6,37.5 32.7,37.3 32.7,37.3 
							32.7,37.4 32.7,37.3 32.6,37.3 32.5,37.4 32.4,37.5 32.6,37.7 32.6,37.7 36.4,37.7 36.4,37.7 36.6,37.5 36.6,37.5 36.5,37.3 
							36.4,37.2 32.7,37.2 32.6,37.2 32.6,37.3 						"/>
						<polygon class="st4" points="32.8,35.6 36.2,35.6 36.4,35.7 36.2,35.9 32.8,35.9 32.7,35.7 						"/>
						<polygon class="st5" points="32.8,35.6 32.8,35.6 36.2,35.6 36.3,35.7 36.2,35.8 32.9,35.8 32.8,35.7 32.9,35.6 32.8,35.6 
							32.8,35.6 32.8,35.6 32.8,35.6 32.7,35.7 32.6,35.7 32.8,35.9 32.8,36 36.2,36 36.3,36 36.4,35.8 36.4,35.7 36.3,35.6 
							36.3,35.5 32.8,35.5 32.8,35.5 						"/>
						<polygon class="st4" points="35,33.7 35,35.3 34.1,35.3 34.2,33.7 						"/>
						<polygon class="st5" points="34.9,33.7 35,35.2 34.1,35.2 34.2,33.8 35,33.8 35,33.7 34.2,33.7 34.1,33.7 34,35.3 34,35.3 
							35,35.3 35.1,35.3 35,33.7 						"/>
						<polygon class="st4" points="34,33.2 34.2,33.2 34.2,33.4 34.4,33.4 34.4,33.2 34.7,33.2 34.7,33.4 34.9,33.4 34.9,33.2 
							35.2,33.2 35.2,33.6 35,33.7 34.1,33.7 34,33.6 						"/>
						<polygon class="st5" points="34,33.2 34,33.2 34.2,33.2 34.2,33.4 34.2,33.4 34.4,33.4 34.5,33.4 34.5,33.2 34.6,33.2 
							34.6,33.4 34.6,33.4 34.9,33.4 34.9,33.4 34.9,33.2 35.1,33.2 35.1,33.6 35,33.7 34.1,33.7 34,33.6 34,33.2 34,33.2 34,33.2 
							34,33.2 34,33.2 34,33.1 34,33.1 33.9,33.1 33.9,33.6 33.9,33.6 34.1,33.8 34.1,33.8 35,33.8 35.2,33.7 35.2,33.6 35.2,33.2 
							35.2,33.1 34.9,33.1 34.8,33.1 34.8,33.3 34.7,33.3 34.7,33.2 34.7,33.1 34.4,33.1 34.4,33.1 34.4,33.3 34.3,33.3 34.3,33.2 
							34.3,33.1 34,33.1 						"/>
						<polygon class="st5" points="34.5,34.3 34.7,34.3 34.7,34.7 34.5,34.7 						"/>
						<polygon class="st4" points="35.1,33.9 35.4,33.9 35.4,34.1 35.6,34.1 35.6,33.9 35.9,33.9 35.9,34.1 36,34.1 36,33.9 
							36.3,33.9 36.3,34.3 36.2,34.4 35.2,34.4 35.1,34.3 						"/>
						<polygon class="st5" points="35.1,33.9 35.1,33.9 35.3,33.9 35.3,34.1 35.3,34.1 35.6,34.1 35.6,34.1 35.6,33.9 35.8,33.9 
							35.8,34.1 35.8,34.1 36,34.1 36.1,34.1 36.1,33.9 36.3,33.9 36.3,34.3 36.2,34.4 35.2,34.4 35.2,34.3 35.2,33.9 35.1,33.9 
							35.1,33.9 35.1,33.9 35.1,33.9 35.1,34.3 35.1,34.3 35.2,34.5 36.2,34.5 36.3,34.4 36.4,34.3 36.4,33.9 36.4,33.8 36,33.8 
							36,33.8 36,34 35.9,34 35.9,33.9 35.9,33.8 35.6,33.8 35.5,33.8 35.5,34 35.4,34 35.4,33.9 35.4,33.8 35.1,33.8 35.1,33.8 
													"/>
						<polygon class="st4" points="36.1,34.4 36.2,35.3 35.3,35.3 35.3,34.4 						"/>
						<polygon class="st5" points="36.1,34.4 36.1,35.2 35.3,35.2 35.3,34.5 36.1,34.5 36.1,34.4 35.3,34.4 35.2,34.4 35.2,35.3 
							35.2,35.3 36.2,35.3 36.2,35.3 36.2,34.4 						"/>
						<polygon class="st4" points="32.8,33.9 33.1,33.9 33.1,34.1 33.3,34.1 33.3,33.9 33.5,33.9 33.5,34.1 33.7,34.1 33.7,33.9 
							34,33.9 34,34.3 33.9,34.4 32.9,34.4 32.8,34.3 						"/>
						<polygon class="st5" points="32.8,33.9 32.8,33.9 33,33.9 33,34.1 33,34.1 33.3,34.1 33.3,34.1 33.3,33.9 33.5,33.9 
							33.5,34.1 33.5,34.1 33.7,34.1 33.8,34.1 33.8,33.9 33.9,33.9 33.9,34.3 33.8,34.4 32.9,34.4 32.9,34.3 32.9,33.9 32.8,33.9 
							32.8,33.9 32.8,33.9 32.7,33.9 32.7,34.3 32.7,34.3 32.9,34.5 33.9,34.5 34,34.4 34,34.3 34,33.9 34,33.8 33.7,33.8 
							33.7,33.8 33.7,34 33.6,34 33.6,33.9 33.6,33.8 33.3,33.8 33.2,33.8 33.2,34 33.1,34 33.1,33.9 33.1,33.8 32.8,33.8 
							32.7,33.8 32.7,33.9 						"/>
						<polygon class="st4" points="33.8,34.4 33.8,35.3 32.9,35.3 33,34.4 						"/>
						<polygon class="st5" points="33.8,34.4 33.8,35.2 33,35.2 33,34.5 33.8,34.5 33.8,34.4 33,34.4 32.9,34.4 32.9,35.3 
							32.9,35.3 33.8,35.3 33.9,35.3 33.9,34.4 						"/>
						<polygon class="st5" points="35.6,34.8 35.8,34.8 35.8,35.1 35.6,35.1 						"/>
						<polygon class="st5" points="33.3,34.8 33.5,34.8 33.5,35.1 33.3,35.1 						"/>
						<polygon class="st4" points="42.8,37.3 46.5,37.3 46.3,35.9 42.9,35.9 						"/>
						<polygon class="st5" points="42.8,37.3 42.8,37.4 46.5,37.4 46.5,37.4 46.4,35.9 46.4,35.9 42.9,35.9 42.9,35.9 42.7,37.3 
							42.7,37.4 42.8,37.4 42.8,37.3 42.8,37.3 43,36 46.3,36 46.4,37.2 42.8,37.2 						"/>
						<polygon class="st4" points="44.7,36 45.6,37.3 43.7,37.3 						"/>
						<polygon class="st5" points="44.6,36.1 45.5,37.2 43.8,37.2 44.7,36.1 44.6,36 43.6,37.3 43.6,37.4 45.6,37.4 45.7,37.4 
							44.7,36 						"/>
						<path class="st4" d="M44.7,36.3c0,0,0.5,0.3,0.5,1h-1C44.1,36.6,44.7,36.3,44.7,36.3z"/>
						<path class="st5" d="M44.7,36.3L44.7,36.3c0,0,0.5,0.3,0.5,1h0.1v-0.1h-1v0.1h0.1C44.1,36.6,44.7,36.4,44.7,36.3L44.7,36.3
							L44.7,36.3L44.7,36.3L44.7,36.3c0,0-0.5,0.2-0.5,1v0.1h1.1h0.1v-0.1C45.2,36.6,44.7,36.3,44.7,36.3L44.7,36.3L44.7,36.3
							L44.7,36.3z"/>
						<polygon class="st4" points="42.8,35.3 46.5,35.3 46.6,35.4 46.5,35.6 42.8,35.6 42.7,35.4 						"/>
						<polygon class="st5" points="42.8,35.3 42.8,35.3 46.4,35.3 46.5,35.4 46.4,35.5 42.8,35.5 42.7,35.4 42.8,35.3 42.8,35.3 
							42.8,35.3 42.8,35.3 42.8,35.3 42.6,35.4 42.6,35.4 42.8,35.6 42.8,35.6 46.5,35.6 46.5,35.6 46.6,35.5 46.7,35.4 46.5,35.3 
							46.5,35.2 42.8,35.2 42.8,35.2 						"/>
						<polygon class="st4" points="42.7,37.3 46.5,37.3 46.7,37.5 46.5,37.6 42.7,37.6 42.6,37.5 						"/>
						<polygon class="st5" points="42.7,37.3 42.7,37.4 46.5,37.4 46.6,37.5 46.5,37.6 42.7,37.6 42.6,37.5 42.7,37.3 42.7,37.3 
							42.7,37.4 42.7,37.3 42.7,37.3 42.5,37.4 42.5,37.5 42.7,37.7 42.7,37.7 46.5,37.7 46.6,37.7 46.7,37.5 46.8,37.5 46.6,37.3 
							46.6,37.2 42.7,37.2 42.7,37.2 						"/>
						<polygon class="st4" points="42.9,35.6 46.4,35.6 46.5,35.7 46.4,35.9 42.9,35.9 42.7,35.7 						"/>
						<polygon class="st5" points="42.9,35.6 42.9,35.6 46.4,35.6 46.4,35.7 46.4,35.8 42.9,35.8 42.8,35.7 42.9,35.6 42.9,35.6 
							42.9,35.6 42.9,35.6 42.8,35.6 42.7,35.7 42.7,35.7 42.8,35.9 42.8,36 46.4,36 46.4,36 46.5,35.8 46.6,35.7 46.4,35.6 
							46.4,35.5 42.9,35.5 42.8,35.5 42.8,35.6 						"/>
						<polygon class="st4" points="45.1,33.7 45.2,35.3 44.1,35.3 44.3,33.7 						"/>
						<polygon class="st5" points="45.1,33.7 45.1,35.2 44.3,35.2 44.3,33.8 45.1,33.8 45.1,33.7 44.3,33.7 44.1,33.7 44.1,35.3 
							44.1,35.3 45.2,35.3 45.2,35.3 45.2,33.7 						"/>
						<polygon class="st4" points="44,33.2 44.4,33.2 44.4,33.4 44.6,33.4 44.6,33.2 44.8,33.2 44.8,33.4 45,33.4 45,33.2 
							45.3,33.2 45.3,33.6 45.2,33.7 44.1,33.7 44,33.6 						"/>
						<polygon class="st5" points="44,33.2 44,33.2 44.3,33.2 44.3,33.4 44.3,33.4 44.6,33.4 44.6,33.4 44.6,33.2 44.8,33.2 
							44.8,33.4 44.8,33.4 45,33.4 45.1,33.4 45.1,33.2 45.2,33.2 45.2,33.6 45.2,33.7 44.1,33.7 44.1,33.6 44.1,33.2 44,33.2 
							44,33.2 44,33.2 44,33.2 44,33.6 44,33.6 44.1,33.8 44.1,33.8 45.2,33.8 45.3,33.7 45.3,33.6 45.3,33.2 45.3,33.1 45,33.1 
							45,33.1 45,33.3 44.9,33.3 44.9,33.2 44.9,33.1 44.6,33.1 44.5,33.1 44.5,33.3 44.4,33.3 44.4,33.2 44.4,33.1 44,33.1 
							44,33.1 						"/>
						<polygon class="st5" points="44.6,34.3 44.8,34.3 44.8,34.7 44.6,34.7 						"/>
						<polygon class="st4" points="45.3,33.9 45.5,33.9 45.5,34.1 45.7,34.1 45.7,33.9 46,33.9 46,34.1 46.2,34.1 46.2,33.9 
							46.4,33.9 46.4,34.3 46.3,34.4 45.4,34.4 45.3,34.3 						"/>
						<polygon class="st5" points="45.3,33.9 45.3,33.9 45.5,33.9 45.5,34.1 45.5,34.1 45.7,34.1 45.8,34.1 45.8,33.9 45.9,33.9 
							45.9,34.1 45.9,34.1 46.2,34.1 46.2,34.1 46.2,33.9 46.4,33.9 46.4,34.3 46.3,34.4 45.4,34.4 45.3,34.3 45.3,33.9 45.3,33.9 
							45.3,33.9 45.3,33.9 45.2,33.9 45.2,34.3 45.2,34.3 45.3,34.5 46.3,34.5 46.5,34.4 46.5,34.3 46.5,33.9 46.5,33.8 46.2,33.8 
							46.1,33.8 46.1,34 46,34 46,33.9 46,33.8 45.7,33.8 45.7,33.8 45.7,34 45.6,34 45.6,33.9 45.6,33.8 45.3,33.8 45.2,33.8 
							45.2,33.9 						"/>
						<polygon class="st4" points="46.3,34.4 46.3,35.3 45.4,35.3 45.4,34.4 						"/>
						<polygon class="st5" points="46.2,34.4 46.3,35.2 45.5,35.2 45.5,34.5 46.3,34.5 46.3,34.4 45.4,34.4 45.4,34.4 45.3,35.3 
							45.3,35.3 46.3,35.3 46.4,35.3 46.3,34.4 						"/>
						<polygon class="st4" points="42.8,33.9 43.1,33.9 43.1,34.1 43.3,34.1 43.3,33.9 43.6,33.9 43.6,34.1 43.8,34.1 43.8,33.9 
							44,33.9 44,34.3 43.9,34.4 43,34.4 42.8,34.3 						"/>
						<polygon class="st5" points="42.8,33.9 42.8,33.9 43,33.9 43,34.1 43,34.1 43.3,34.1 43.4,34.1 43.4,33.9 43.5,33.9 
							43.5,34.1 43.5,34.1 43.8,34.1 43.8,34.1 43.8,33.9 44,33.9 44,34.3 43.9,34.4 43,34.4 42.9,34.3 42.9,33.9 42.8,33.9 
							42.8,33.9 42.8,33.9 42.8,33.9 42.8,34.3 42.8,34.3 42.9,34.5 43.9,34.5 44.1,34.4 44.1,34.3 44.1,33.9 44.1,33.8 43.8,33.8 
							43.7,33.8 43.7,34 43.6,34 43.6,33.9 43.6,33.8 43.3,33.8 43.2,33.8 43.2,34 43.2,34 43.2,33.9 43.2,33.8 42.8,33.8 
							42.8,33.8 						"/>
						<polygon class="st4" points="43.9,34.4 43.9,35.3 43,35.3 43,34.4 						"/>
						<polygon class="st5" points="43.8,34.4 43.8,35.2 43,35.2 43.1,34.5 43.9,34.5 43.9,34.4 43,34.4 43,34.4 42.9,35.3 
							42.9,35.3 43.9,35.3 43.9,35.3 43.9,34.4 						"/>
						<polygon class="st5" points="45.8,34.8 46,34.8 46,35.1 45.8,35.1 						"/>
						<polygon class="st5" points="43.3,34.8 43.5,34.8 43.5,35.1 43.3,35.1 						"/>
						<polygon class="st4" points="42.8,47.9 46.5,47.9 46.3,46.4 42.9,46.4 						"/>
						<polygon class="st5" points="42.8,47.9 42.8,48 46.5,48 46.5,48 46.4,46.4 46.4,46.4 42.9,46.4 42.9,46.4 42.7,47.9 42.7,48 
							42.8,48 42.8,47.9 42.8,47.9 43,46.5 46.3,46.5 46.4,47.9 						"/>
						<polygon class="st4" points="44.7,46.6 45.6,47.9 43.7,47.9 						"/>
						<polygon class="st5" points="44.6,46.6 45.5,47.9 43.8,47.9 44.7,46.6 44.6,46.5 43.6,47.9 43.6,48 45.6,48 45.7,48 
							44.7,46.5 						"/>
						<path class="st4" d="M44.7,46.9c0,0,0.5,0.2,0.5,1h-1C44.1,47.1,44.7,46.9,44.7,46.9z"/>
						<path class="st5" d="M44.7,46.9L44.7,46.9c0,0,0.5,0.3,0.5,1h0.1v-0.1h-1V48h0.1C44.1,47.1,44.7,46.9,44.7,46.9L44.7,46.9
							L44.7,46.9L44.7,46.9L44.7,46.9c0,0-0.5,0.2-0.5,1l0,0h1.1h0.1v-0.1C45.2,47.1,44.7,46.8,44.7,46.9L44.7,46.9L44.7,46.9
							L44.7,46.9z"/>
						<polygon class="st4" points="42.8,45.8 46.5,45.8 46.6,46 46.5,46.1 42.8,46.1 42.7,46 						"/>
						<polygon class="st5" points="42.8,45.8 42.8,45.9 46.4,45.9 46.5,46 46.4,46.1 42.8,46.1 42.7,46 42.8,45.9 42.8,45.8 
							42.8,45.9 42.8,45.8 42.8,45.8 42.6,45.9 42.6,46 42.8,46.2 42.8,46.2 46.5,46.2 46.5,46.2 46.6,46 46.7,46 46.5,45.8 
							46.5,45.8 						"/>
						<polygon class="st4" points="42.7,47.9 46.5,47.9 46.7,48.1 46.5,48.3 42.7,48.3 42.6,48.1 						"/>
						<polygon class="st5" points="42.7,47.9 42.7,48 46.5,48 46.6,48.1 46.5,48.2 42.7,48.2 42.6,48.1 42.7,48 42.7,47.9 42.7,48 
							42.7,47.9 42.7,47.9 42.5,48.1 42.5,48.1 42.7,48.3 42.7,48.3 46.5,48.3 46.6,48.3 46.7,48.1 46.8,48.1 46.6,47.9 46.6,47.9 
													"/>
						<polygon class="st4" points="42.9,46.1 46.4,46.1 46.5,46.3 46.4,46.4 42.9,46.4 42.7,46.3 						"/>
						<polygon class="st5" points="42.9,46.1 42.9,46.2 46.4,46.2 46.4,46.3 46.4,46.4 42.9,46.4 42.8,46.3 42.9,46.2 42.9,46.1 
							42.9,46.2 42.9,46.1 42.8,46.1 42.7,46.3 42.7,46.3 42.8,46.5 42.8,46.5 46.4,46.5 46.4,46.5 46.5,46.3 46.6,46.3 46.4,46.1 
							46.4,46.1 42.9,46.1 42.8,46.1 42.8,46.1 						"/>
						<polygon class="st4" points="45.1,44.4 45.2,45.8 44.1,45.8 44.3,44.4 						"/>
						<polygon class="st5" points="45.1,44.4 45.1,45.8 44.3,45.8 44.3,44.4 45.1,44.4 45.1,44.3 44.3,44.3 44.1,44.3 44.1,45.8 
							44.1,45.9 45.2,45.9 45.2,45.9 45.2,44.4 						"/>
						<polygon class="st4" points="44,43.8 44.4,43.8 44.4,44 44.6,44 44.6,43.8 44.8,43.8 44.8,44 45,44 45,43.8 45.3,43.8 
							45.3,44.3 45.2,44.4 44.1,44.4 44,44.3 						"/>
						<polygon class="st5" points="44,43.8 44,43.9 44.3,43.9 44.3,44 44.3,44.1 44.6,44.1 44.6,44.1 44.6,43.9 44.8,43.9 44.8,44 
							44.8,44.1 45,44.1 45.1,44.1 45.1,43.9 45.2,43.9 45.2,44.2 45.2,44.3 44.1,44.3 44.1,44.2 44.1,43.8 44,43.8 44,43.9 
							44,43.8 44,43.8 44,44.3 44,44.3 44.1,44.4 44.1,44.4 45.2,44.4 45.2,44.4 45.3,44.3 45.3,44.3 45.3,43.8 45.3,43.8 45,43.8 
							45,43.8 45,44 44.9,44 44.9,43.8 44.9,43.8 44.6,43.8 44.5,43.8 44.5,44 44.4,44 44.4,43.8 44.4,43.8 						"/>
						<polygon class="st5" points="44.6,45 44.8,45 44.8,45.3 44.6,45.3 						"/>
						<polygon class="st4" points="45.3,44.5 45.5,44.5 45.5,44.7 45.7,44.7 45.7,44.5 46,44.5 46,44.7 46.2,44.7 46.2,44.5 
							46.4,44.5 46.4,45 46.3,45.1 45.4,45.1 45.3,45 						"/>
						<polygon class="st5" points="45.3,44.5 45.3,44.6 45.5,44.6 45.5,44.7 45.5,44.8 45.7,44.8 45.8,44.8 45.8,44.6 45.9,44.6 
							45.9,44.7 45.9,44.8 46.2,44.8 46.2,44.8 46.2,44.6 46.4,44.6 46.4,44.9 46.3,45 45.4,45 45.3,44.9 45.3,44.5 45.3,44.5 
							45.3,44.6 45.3,44.5 45.2,44.5 45.2,45 45.2,45 45.3,45.1 46.3,45.1 46.5,45 46.5,45 46.5,44.5 46.5,44.5 46.2,44.5 
							46.1,44.5 46.1,44.6 46,44.6 46,44.5 46,44.5 45.7,44.5 45.7,44.5 45.7,44.6 45.6,44.6 45.6,44.5 45.6,44.5 45.3,44.5 
							45.2,44.5 45.2,44.5 						"/>
						<polygon class="st4" points="46.3,45.1 46.3,45.8 45.4,45.8 45.4,45.1 						"/>
						<polygon class="st5" points="46.2,45.1 46.3,45.8 45.5,45.8 45.5,45.1 46.3,45.1 46.3,45 45.4,45 45.4,45 45.3,45.8 
							45.3,45.9 46.3,45.9 46.4,45.9 46.3,45.1 						"/>
						<polygon class="st4" points="42.8,44.5 43.1,44.5 43.1,44.7 43.3,44.7 43.3,44.5 43.6,44.5 43.6,44.7 43.8,44.7 43.8,44.5 
							44,44.5 44,45 43.9,45.1 43,45.1 42.8,45 						"/>
						<polygon class="st5" points="42.8,44.5 42.8,44.6 43,44.6 43,44.7 43,44.8 43.3,44.8 43.4,44.8 43.4,44.6 43.5,44.6 
							43.5,44.7 43.5,44.8 43.8,44.8 43.8,44.8 43.8,44.6 44,44.6 44,44.9 43.9,45 43,45 42.9,44.9 42.9,44.5 42.8,44.5 42.8,44.6 
							42.8,44.5 42.8,44.5 42.8,45 42.8,45 42.9,45.1 43.9,45.1 44.1,45 44.1,45 44.1,44.5 44.1,44.5 43.8,44.5 43.7,44.5 
							43.7,44.6 43.6,44.6 43.6,44.5 43.6,44.5 43.3,44.5 43.2,44.5 43.2,44.6 43.2,44.6 43.2,44.5 43.2,44.5 						"/>
						<polygon class="st4" points="43.9,45.1 43.9,45.8 43,45.8 43,45.1 						"/>
						<polygon class="st5" points="43.8,45.1 43.8,45.8 43,45.8 43.1,45.1 43.9,45.1 43.9,45 43,45 43,45 42.9,45.8 42.9,45.9 
							43.9,45.9 43.9,45.9 43.9,45.1 						"/>
						<polygon class="st5" points="45.8,45.4 46,45.4 46,45.6 45.8,45.6 						"/>
						<polygon class="st5" points="43.3,45.4 43.5,45.4 43.5,45.6 43.3,45.6 						"/>
						<polygon class="st4" points="39.7,56.3 42.3,58.8 43.2,57.6 40.8,55.4 						"/>
						<polygon class="st5" points="39.7,56.3 39.7,56.3 42.3,58.8 42.4,58.8 43.2,57.7 43.3,57.6 40.8,55.3 40.8,55.3 39.7,56.2 
							39.6,56.3 39.7,56.3 39.7,56.3 39.8,56.3 40.8,55.4 43.1,57.6 42.3,58.7 39.8,56.2 39.7,56.3 39.8,56.3 						"/>
						<polygon class="st4" points="41.9,56.6 41.7,58.1 40.4,56.9 						"/>
						<polygon class="st5" points="41.9,56.6 41.6,58 40.5,56.9 41.9,56.6 41.9,56.5 40.4,56.8 40.3,56.9 41.7,58.2 41.7,58.2 
							42,56.6 						"/>
						<polygon class="st4" points="41.7,56.8 41.4,57.9 40.7,57.2 						"/>
						<polygon class="st5" points="41.7,56.8 41.6,56.8 41.4,57.8 40.8,57.2 41.7,56.9 41.7,56.8 41.6,56.8 41.7,56.8 41.7,56.7 
							40.6,57.1 40.6,57.1 41.4,57.9 41.4,58 41.8,56.8 41.8,56.7 41.7,56.7 						"/>
						<polygon class="st4" points="41.1,54.8 43.7,57.3 43.7,57.5 43.5,57.5 40.9,55.1 40.9,54.9 						"/>
						<polygon class="st5" points="41.1,54.8 41.1,54.9 43.7,57.3 43.7,57.4 43.5,57.5 41,55 41,54.9 41.1,54.9 41.1,54.8 
							41.1,54.9 41.1,54.8 41.1,54.8 40.9,54.8 40.9,54.8 40.9,55 40.9,55.1 43.5,57.5 43.5,57.6 43.7,57.5 43.8,57.5 43.8,57.3 
							43.8,57.3 41.2,54.8 41.2,54.8 						"/>
						<polygon class="st4" points="39.7,56.2 42.4,58.8 42.4,59 42.2,59 39.5,56.5 39.5,56.3 						"/>
						<polygon class="st5" points="39.7,56.2 39.6,56.3 42.3,58.8 42.3,59 42.2,59 39.5,56.4 39.5,56.3 39.7,56.3 39.7,56.2 
							39.6,56.3 39.7,56.2 39.7,56.2 39.5,56.2 39.4,56.2 39.4,56.5 39.4,56.5 42.1,59.1 42.1,59.1 42.4,59.1 42.4,59.1 42.4,58.8 
							42.4,58.8 						"/>
						<polygon class="st4" points="41,55.1 43.4,57.5 43.4,57.7 43.2,57.7 40.8,55.3 40.8,55.1 						"/>
						<polygon class="st5" points="41,55.1 40.9,55.2 43.4,57.5 43.4,57.6 43.3,57.6 40.8,55.3 40.8,55.2 41,55.2 41,55.1 
							40.9,55.2 41,55.1 41,55.1 40.8,55.1 40.7,55.1 40.7,55.3 40.7,55.4 43.2,57.7 43.2,57.7 43.4,57.7 43.5,57.7 43.5,57.5 
							43.5,57.4 						"/>
						<polygon class="st4" points="43.7,55.3 42.8,56.4 42.1,55.7 43.1,54.7 						"/>
						<polygon class="st5" points="43.7,55.3 42.8,56.3 42.2,55.7 43.1,54.8 43.7,55.3 43.8,55.3 43.2,54.7 43.1,54.7 42.1,55.7 
							42,55.7 42.7,56.4 42.8,56.5 43.8,55.3 						"/>
						<polygon class="st4" points="43.4,54.2 43.6,54.4 43.4,54.5 43.6,54.7 43.7,54.5 43.9,54.7 43.8,54.9 43.9,55 44.1,54.8 
							44.4,55 44,55.3 43.8,55.3 43.1,54.7 43.1,54.5 						"/>
						<polygon class="st5" points="43.4,54.2 43.4,54.3 43.5,54.4 43.4,54.5 43.4,54.5 43.6,54.7 43.6,54.7 43.7,54.6 43.8,54.7 
							43.7,54.8 43.7,54.9 43.9,55 43.9,55.1 44.1,54.9 44.3,55 43.9,55.3 43.8,55.3 43.2,54.7 43.1,54.5 43.4,54.3 43.4,54.2 
							43.4,54.3 43.4,54.2 43.4,54.2 43,54.5 43,54.5 43,54.7 43,54.7 43.7,55.4 43.8,55.4 44,55.4 44,55.4 44.4,55.1 44.4,55 
							44.1,54.8 44.1,54.8 43.9,54.9 43.9,54.9 44,54.7 44,54.7 43.8,54.5 43.7,54.4 43.6,54.6 43.5,54.5 43.6,54.4 43.7,54.4 
							43.4,54.2 43.4,54 						"/>
						<polygon class="st5" points="43,55.4 43.1,55.5 42.9,55.8 42.7,55.6 						"/>
						<polygon class="st4" points="43.8,55.5 43.9,55.7 43.8,55.8 44,56 44.1,55.8 44.4,56 44.1,56.1 44.4,56.3 44.5,56.1 
							44.7,56.3 44.4,56.6 44.1,56.6 43.5,56 43.4,55.8 						"/>
						<polygon class="st5" points="43.8,55.5 43.7,55.6 43.9,55.7 43.8,55.8 43.7,55.8 43.9,56 44,56 44.1,55.9 44.3,56 44.1,56.1 
							44.1,56.1 44.3,56.3 44.4,56.4 44.5,56.2 44.6,56.3 44.4,56.6 44.3,56.6 43.5,56 43.5,55.8 43.8,55.5 43.8,55.5 43.7,55.6 
							43.8,55.5 43.7,55.5 43.4,55.8 43.4,55.8 43.4,56 43.4,56 44.1,56.7 44.1,56.7 44.4,56.7 44.8,56.4 44.8,56.3 44.6,56.1 
							44.5,56.1 44.4,56.2 44.3,56.1 44.4,56 44.5,56 44.1,55.8 44.1,55.7 43.9,55.9 43.9,55.8 44,55.7 44,55.7 43.8,55.5 
							43.8,55.4 43.7,55.5 						"/>
						<polygon class="st4" points="44.1,56.6 43.6,57.2 43,56.6 43.5,56 						"/>
						<polygon class="st5" points="44.1,56.6 43.6,57.1 43,56.6 43.5,56.1 44.1,56.7 44.1,56.6 43.5,56 43.5,55.9 42.9,56.5 
							42.9,56.6 43.6,57.2 43.6,57.3 						"/>
						<polygon class="st4" points="42.1,53.8 42.3,54 42.1,54.2 42.3,54.4 42.4,54.2 42.6,54.4 42.5,54.5 42.6,54.7 42.7,54.5 
							42.9,54.7 42.6,55 42.5,55 41.8,54.4 41.8,54.2 						"/>
						<polygon class="st5" points="42.1,53.8 42,53.8 42.2,54 42.1,54.2 42.1,54.2 42.2,54.4 42.3,54.4 42.4,54.3 42.5,54.4 
							42.4,54.5 42.4,54.5 42.6,54.7 42.6,54.8 42.7,54.6 42.8,54.7 42.6,55 42.5,55 41.8,54.4 41.8,54.2 42.1,53.8 42.1,53.8 
							42,53.8 42.1,53.8 42,53.8 41.7,54.2 41.7,54.2 41.7,54.4 41.7,54.4 42.4,55.1 42.4,55.1 42.6,55.1 42.6,55.1 43,54.8 
							43,54.7 42.8,54.5 42.7,54.5 42.6,54.6 42.5,54.5 42.6,54.4 42.7,54.4 42.4,54.2 42.4,54 42.3,54.3 42.2,54.2 42.3,54 
							42.3,54 42.1,53.8 42.1,53.7 42,53.8 						"/>
						<polygon class="st4" points="42.4,55 41.9,55.6 41.3,55 41.8,54.4 						"/>
						<polygon class="st5" points="42.4,55 41.9,55.5 41.3,55 41.8,54.5 42.4,55 42.5,55 41.8,54.4 41.8,54.3 41.2,54.9 41.2,55 
							41.9,55.6 41.9,55.7 42.5,55 						"/>
						<polygon class="st5" points="43.5,56.5 43.6,56.6 43.5,56.8 43.4,56.6 						"/>
						<polygon class="st5" points="41.8,54.9 42,55 41.8,55.2 41.7,55 						"/>
						<polygon class="st4" points="29.5,56.3 26.9,58.8 26,57.6 28.4,55.4 						"/>
						<polygon class="st5" points="29.5,56.3 29.5,56.2 26.9,58.7 26.1,57.6 28.4,55.4 29.5,56.3 29.5,56.3 29.5,56.2 29.5,56.3 
							29.5,56.2 28.5,55.3 28.4,55.3 26,57.6 26,57.6 26.8,58.8 26.9,58.8 29.5,56.3 29.6,56.3 29.5,56.2 						"/>
						<polygon class="st4" points="27.3,56.6 27.5,58.1 28.8,56.9 						"/>
						<polygon class="st5" points="27.3,56.6 27.5,58.1 27.5,58.2 28.9,56.9 28.9,56.9 27.3,56.5 27.3,56.6 28.7,56.9 27.6,58 
							27.4,56.6 						"/>
						<polygon class="st4" points="27.5,56.8 27.8,57.9 28.5,57.2 						"/>
						<polygon class="st5" points="27.5,56.8 27.5,56.8 27.8,57.9 27.8,58 28.6,57.2 28.6,57.1 27.5,56.7 27.4,56.7 27.5,56.8 
							27.5,56.8 27.5,56.9 28.4,57.2 27.8,57.8 27.6,56.8 27.5,56.8 27.5,56.9 						"/>
						<polygon class="st4" points="28.1,54.8 25.5,57.3 25.5,57.5 25.7,57.5 28.3,55.1 28.3,54.9 						"/>
						<polygon class="st5" points="28.1,54.8 28.1,54.8 25.5,57.2 25.4,57.3 25.5,57.5 25.5,57.5 25.7,57.6 25.7,57.6 28.3,55.1 
							28.3,55.1 28.3,54.9 28.3,54.8 28.1,54.8 28.1,54.8 28.1,54.8 28.1,54.8 28.1,54.9 28.2,54.9 28.2,55 25.7,57.5 25.6,57.4 
							25.6,57.3 28.1,54.9 28.1,54.8 28.1,54.9 						"/>
						<polygon class="st4" points="29.5,56.2 26.8,58.8 26.8,59 27,59 29.8,56.5 29.8,56.3 						"/>
						<polygon class="st5" points="29.5,56.2 29.5,56.2 26.8,58.8 26.8,58.8 26.8,59 26.8,59.1 27,59.1 27.1,59.1 29.8,56.5 
							29.8,56.5 29.8,56.2 29.8,56.2 29.5,56.2 29.5,56.2 29.5,56.2 29.5,56.2 29.5,56.3 29.7,56.3 29.7,56.4 27,59 26.9,59 
							26.9,58.8 29.6,56.3 29.5,56.2 29.5,56.3 						"/>
						<polygon class="st4" points="28.2,55.1 25.8,57.5 25.8,57.7 26,57.7 28.5,55.3 28.4,55.1 						"/>
						<polygon class="st5" points="28.2,55.1 28.2,55.1 25.7,57.4 25.7,57.4 25.7,57.7 25.7,57.7 26,57.7 26,57.7 28.5,55.4 
							28.5,55.4 28.5,55.1 28.5,55.1 28.2,55.1 28.2,55.1 28.2,55.1 28.2,55.1 28.2,55.2 28.4,55.2 28.4,55.3 26,57.6 25.8,57.6 
							25.8,57.5 28.3,55.2 28.2,55.1 28.2,55.2 						"/>
						<polygon class="st4" points="25.5,55.3 26.4,56.4 27.1,55.7 26.1,54.7 						"/>
						<polygon class="st5" points="25.4,55.3 26.4,56.4 26.4,56.5 27.2,55.8 27.2,55.7 26.1,54.7 26.1,54.7 25.4,55.3 25.5,55.3 
							26.1,54.8 27,55.7 26.4,56.3 25.5,55.3 						"/>
						<polygon class="st4" points="25.8,54.2 25.6,54.4 25.8,54.5 25.6,54.7 25.5,54.5 25.3,54.7 25.4,54.9 25.3,55 25.2,54.8 
							24.9,55 25.3,55.3 25.4,55.3 26.1,54.7 26.1,54.5 						"/>
						<polygon class="st5" points="25.8,54.2 25.8,54.2 25.6,54.4 25.6,54.4 25.7,54.5 25.6,54.6 25.5,54.5 25.5,54.4 25.3,54.7 
							25.2,54.7 25.4,54.9 25.3,54.9 25.2,54.8 25.2,54.8 24.8,55 24.8,55 25.2,55.4 25.2,55.4 25.4,55.4 25.5,55.4 26.1,54.7 
							26.2,54.7 26.2,54.5 26.2,54.5 25.9,54.2 25.8,54 25.8,54.2 25.8,54.2 25.8,54.2 26.1,54.5 26.1,54.7 25.4,55.3 25.3,55.3 
							24.9,55 25.2,54.9 25.3,55 25.3,55.1 25.5,54.9 25.5,54.9 25.4,54.7 25.5,54.6 25.6,54.7 25.6,54.7 25.8,54.6 25.8,54.5 
							25.7,54.4 25.9,54.3 						"/>
						<polygon class="st5" points="26.3,55.4 26.1,55.5 26.4,55.8 26.5,55.6 						"/>
						<polygon class="st4" points="25.5,55.5 25.3,55.7 25.4,55.8 25.3,56 25,55.8 24.8,56 25,56.1 24.8,56.3 24.7,56.1 24.5,56.3 
							24.8,56.6 25,56.6 25.7,56 25.8,55.8 						"/>
						<polygon class="st5" points="25.5,55.5 25.4,55.5 25.2,55.6 25.2,55.7 25.3,55.8 25.3,55.9 25.2,55.8 25,55.7 24.8,56 
							24.8,56 24.9,56.1 24.8,56.2 24.7,56.1 24.7,56.1 24.5,56.3 24.4,56.3 24.8,56.7 24.8,56.7 25,56.7 25,56.7 25.8,56 25.8,56 
							25.8,55.8 25.8,55.8 25.5,55.5 25.5,55.4 25.4,55.5 25.5,55.5 25.4,55.5 25.7,55.8 25.7,56 24.9,56.6 24.8,56.6 24.6,56.3 
							24.7,56.2 24.8,56.3 24.8,56.4 25,56.2 25,56.1 24.9,56 25,55.9 25.2,56 25.3,56 25.4,55.9 25.5,55.8 25.4,55.7 25.5,55.6 
							25.5,55.5 25.4,55.5 						"/>
						<polygon class="st4" points="25,56.6 25.6,57.2 26.3,56.6 25.7,56 						"/>
						<polygon class="st5" points="25,56.6 25.6,57.2 25.6,57.3 26.3,56.6 26.3,56.6 25.8,56 25.7,55.9 25,56.6 25,56.7 25.7,56.1 
							26.2,56.6 25.6,57.1 						"/>
						<polygon class="st4" points="27.2,53.8 27,54 27.1,54.2 26.9,54.4 26.8,54.2 26.6,54.4 26.8,54.5 26.6,54.7 26.5,54.5 
							26.3,54.7 26.6,55 26.8,55 27.4,54.4 27.4,54.2 						"/>
						<polygon class="st5" points="27.2,53.8 27.1,53.8 26.9,53.9 26.9,54 27,54.2 27,54.3 26.9,54.2 26.8,54 26.6,54.4 26.5,54.4 
							26.7,54.5 26.6,54.6 26.5,54.5 26.5,54.5 26.2,54.7 26.2,54.7 26.5,55.1 26.6,55.1 26.8,55.1 26.8,55.1 27.5,54.4 27.5,54.4 
							27.5,54.2 27.5,54.2 27.2,53.8 27.2,53.7 27.1,53.8 27.2,53.8 27.1,53.8 27.4,54.2 27.4,54.4 26.7,55 26.6,55 26.4,54.7 
							26.5,54.6 26.6,54.7 26.6,54.8 26.8,54.6 26.8,54.5 26.7,54.4 26.8,54.3 26.9,54.4 26.9,54.4 27.1,54.3 27.2,54.2 27,54 
							27.2,53.8 27.2,53.8 27.1,53.8 						"/>
						<polygon class="st4" points="26.8,55 27.3,55.6 27.9,55 27.4,54.4 						"/>
						<polygon class="st5" points="26.8,55 27.3,55.6 27.3,55.7 28,55 28,55 27.4,54.4 27.4,54.3 26.8,55 26.8,55 27.4,54.5 
							27.9,55 27.3,55.5 						"/>
						<polygon class="st5" points="25.7,56.5 25.6,56.6 25.7,56.8 25.8,56.6 						"/>
						<polygon class="st5" points="27.4,54.9 27.3,55 27.4,55.2 27.5,55 						"/>
						<polygon class="st4" points="22.6,37.3 26.3,37.3 26.1,35.9 22.7,35.9 						"/>
						<polygon class="st5" points="22.6,37.3 22.6,37.4 26.3,37.4 26.4,37.4 26.2,35.9 26.2,35.9 22.7,35.9 22.7,35.9 22.5,37.3 
							22.5,37.4 22.6,37.4 22.6,37.3 22.7,37.3 22.8,36 26.1,36 26.2,37.2 22.6,37.2 22.6,37.3 22.7,37.3 						"/>
						<polygon class="st4" points="24.4,36 25.4,37.3 23.5,37.3 						"/>
						<polygon class="st5" points="24.3,36.1 25.3,37.2 23.6,37.2 24.4,36.1 24.3,36 23.5,37.3 23.4,37.4 25.4,37.4 25.5,37.4 
							24.4,36 						"/>
						<path class="st4" d="M24.4,36.3c0,0,0.5,0.3,0.5,1h-1C23.9,36.6,24.4,36.3,24.4,36.3z"/>
						<path class="st5" d="M24.4,36.3L24.4,36.3c0,0,0.5,0.3,0.5,1H25v-0.1h-1v0.1h0.1C23.9,36.6,24.4,36.4,24.4,36.3L24.4,36.3
							L24.4,36.3L24.4,36.3L24.4,36.3c0,0-0.6,0.2-0.6,1v0.1h1.1H25v-0.1C25,36.6,24.4,36.3,24.4,36.3L24.4,36.3L24.4,36.3
							L24.4,36.3z"/>
						<polygon class="st4" points="22.6,35.3 26.3,35.3 26.4,35.4 26.3,35.6 22.6,35.6 22.5,35.4 						"/>
						<polygon class="st5" points="22.6,35.3 22.6,35.3 26.3,35.3 26.3,35.4 26.3,35.5 22.6,35.5 22.6,35.4 22.7,35.3 22.6,35.3 
							22.6,35.3 22.6,35.3 22.6,35.3 22.4,35.4 22.4,35.4 22.6,35.6 22.6,35.6 26.3,35.6 26.3,35.6 26.5,35.5 26.5,35.4 26.3,35.3 
							26.3,35.2 22.6,35.2 22.6,35.2 						"/>
						<polygon class="st4" points="22.5,37.3 26.4,37.3 26.5,37.5 26.4,37.6 22.5,37.6 22.4,37.5 						"/>
						<polygon class="st5" points="22.5,37.3 22.5,37.4 26.3,37.4 26.4,37.5 26.3,37.6 22.5,37.6 22.5,37.5 22.6,37.3 22.5,37.3 
							22.5,37.4 22.5,37.3 22.5,37.3 22.3,37.4 22.3,37.5 22.5,37.7 22.5,37.7 26.4,37.7 26.4,37.7 26.6,37.5 26.6,37.5 26.4,37.3 
							26.4,37.2 22.5,37.2 22.5,37.2 						"/>
						<polygon class="st4" points="22.7,35.6 26.2,35.6 26.3,35.7 26.2,35.9 22.7,35.9 22.6,35.7 						"/>
						<polygon class="st5" points="22.7,35.6 22.7,35.6 26.2,35.6 26.3,35.7 26.2,35.8 22.7,35.8 22.6,35.7 22.7,35.6 22.7,35.6 
							22.7,35.6 22.7,35.6 22.7,35.6 22.5,35.7 22.5,35.7 22.7,35.9 22.7,36 26.2,36 26.2,36 26.4,35.8 26.4,35.7 26.2,35.6 
							26.2,35.5 22.7,35.5 22.7,35.5 						"/>
						<polygon class="st4" points="24.8,33.7 24.9,35.3 23.9,35.3 24,33.7 						"/>
						<polygon class="st5" points="24.8,33.7 24.8,35.2 24,35.2 24.1,33.8 24.8,33.8 24.8,33.7 24,33.7 24,33.7 23.9,35.3 
							23.9,35.3 24.9,35.3 24.9,35.3 24.9,33.7 						"/>
						<polygon class="st4" points="23.8,33.2 24.1,33.2 24.1,33.4 24.3,33.4 24.3,33.2 24.6,33.2 24.6,33.4 24.7,33.4 24.7,33.2 
							25,33.2 25,33.6 24.9,33.7 24,33.7 23.8,33.6 						"/>
						<polygon class="st5" points="23.8,33.2 23.8,33.2 24,33.2 24,33.4 24,33.4 24.3,33.4 24.3,33.4 24.3,33.2 24.5,33.2 
							24.5,33.4 24.5,33.4 24.7,33.4 24.8,33.4 24.8,33.2 25,33.2 25,33.6 24.9,33.7 24,33.7 23.9,33.6 23.9,33.2 23.8,33.2 
							23.8,33.2 23.8,33.2 23.8,33.2 23.8,33.6 23.8,33.6 23.9,33.8 24.9,33.8 24.9,33.8 25.2,33.7 25.2,33.6 25.2,33.2 25.2,33.1 
							24.7,33.1 24.7,33.1 24.7,33.3 24.6,33.3 24.6,33.2 24.6,33.1 24.3,33.1 24.2,33.1 24.2,33.3 24.1,33.3 24.1,33.2 24.1,33.1 
							23.8,33.1 23.8,33.1 						"/>
						<polygon class="st5" points="24.3,34.3 24.5,34.3 24.5,34.7 24.3,34.7 						"/>
						<polygon class="st4" points="25,33.9 25.4,33.9 25.4,34.1 25.5,34.1 25.5,33.9 25.8,33.9 25.8,34.1 26,34.1 26,33.9 
							26.3,33.9 26.3,34.3 26.2,34.4 25.2,34.4 25,34.3 						"/>
						<polygon class="st5" points="25,33.9 25,33.9 25.3,33.9 25.3,34.1 25.3,34.1 25.5,34.1 25.6,34.1 25.6,33.9 25.8,33.9 
							25.8,34.1 25.8,34.1 26,34.1 26.1,34.1 26.1,33.9 26.2,33.9 26.2,34.3 26.1,34.4 25.2,34.4 25,34.3 25,33.9 25,33.9 25,33.9 
							25,33.9 24.9,33.9 24.9,34.3 24.9,34.3 25.2,34.5 26.2,34.5 26.2,34.5 26.3,34.4 26.3,34.3 26.3,33.9 26.3,33.8 26,33.8 
							25.9,33.8 25.9,34 25.9,34 25.9,33.9 25.9,33.8 25.5,33.8 25.5,33.8 25.5,34 25.4,34 25.4,33.9 25.4,33.8 25,33.8 24.9,33.8 
							24.9,33.9 						"/>
						<polygon class="st4" points="26.1,34.4 26.1,35.3 25.2,35.3 25.3,34.4 						"/>
						<polygon class="st5" points="26,34.4 26.1,35.2 25.3,35.2 25.3,34.5 26.1,34.5 26.1,34.4 25.3,34.4 25.2,34.4 25.2,35.3 
							25.2,35.3 26.1,35.3 26.2,35.3 26.2,34.4 						"/>
						<polygon class="st4" points="22.7,33.9 22.9,33.9 22.9,34.1 23.1,34.1 23.1,33.9 23.4,33.9 23.4,34.1 23.6,34.1 23.6,33.9 
							23.8,33.9 23.8,34.3 23.7,34.4 22.8,34.4 22.7,34.3 						"/>
						<polygon class="st5" points="22.7,33.9 22.7,33.9 22.9,33.9 22.9,34.1 22.9,34.1 23.1,34.1 23.2,34.1 23.2,33.9 23.3,33.9 
							23.3,34.1 23.3,34.1 23.6,34.1 23.6,34.1 23.6,33.9 23.8,33.9 23.8,34.3 23.7,34.4 22.8,34.4 22.7,34.3 22.7,33.9 22.7,33.9 
							22.7,33.9 22.7,33.9 22.6,33.9 22.6,34.3 22.6,34.3 22.7,34.5 22.8,34.5 23.7,34.5 23.8,34.5 23.9,34.4 23.9,34.3 23.9,33.9 
							23.9,33.8 23.6,33.8 23.5,33.8 23.5,34 23.4,34 23.4,33.9 23.4,33.8 23.1,33.8 23.1,33.8 23.1,34 23,34 23,33.9 23,33.8 
							22.7,33.8 22.6,33.8 22.6,33.9 						"/>
						<polygon class="st4" points="23.7,34.4 23.7,35.3 22.8,35.3 22.8,34.4 						"/>
						<polygon class="st5" points="23.6,34.4 23.7,35.2 22.9,35.2 22.9,34.5 23.7,34.5 23.7,34.4 22.8,34.4 22.8,34.4 22.7,35.3 
							22.7,35.3 23.7,35.3 23.8,35.3 23.7,34.4 						"/>
						<polygon class="st5" points="25.6,34.8 25.8,34.8 25.8,35.1 25.6,35.1 						"/>
						<polygon class="st5" points="23.2,34.8 23.4,34.8 23.4,35.1 23.2,35.1 						"/>
						<polygon class="st4" points="22.6,47.9 26.3,47.9 26.1,46.4 22.7,46.4 						"/>
						<polygon class="st5" points="22.6,47.9 22.6,48 26.3,48 26.4,48 26.2,46.4 26.2,46.4 22.7,46.4 22.7,46.4 22.5,47.9 22.5,48 
							22.6,48 22.6,47.9 22.7,47.9 22.8,46.5 26.1,46.5 26.2,47.9 22.6,47.9 22.6,47.9 22.7,47.9 						"/>
						<polygon class="st4" points="24.4,46.6 25.4,47.9 23.5,47.9 						"/>
						<polygon class="st5" points="24.3,46.6 25.3,47.9 23.6,47.9 24.4,46.6 24.3,46.5 23.5,47.9 23.4,48 25.4,48 25.5,48 
							24.4,46.5 						"/>
						<path class="st4" d="M24.4,46.9c0,0,0.5,0.2,0.5,1h-1C23.9,47.1,24.4,46.9,24.4,46.9z"/>
						<path class="st5" d="M24.4,46.9L24.4,46.9c0,0,0.5,0.3,0.5,1H25v-0.1h-1V48h0.1C23.9,47.1,24.4,46.9,24.4,46.9L24.4,46.9
							L24.4,46.9L24.4,46.9L24.4,46.9c0,0-0.6,0.2-0.6,1l0,0h1.1H25v-0.1C25,47.1,24.4,46.8,24.4,46.9L24.4,46.9L24.4,46.9
							L24.4,46.9z"/>
						<polygon class="st4" points="22.6,45.8 26.3,45.8 26.4,46 26.3,46.1 22.6,46.1 22.5,46 						"/>
						<polygon class="st5" points="22.6,45.8 22.6,45.9 26.3,45.9 26.3,46 26.3,46.1 22.7,46.1 22.6,46 22.7,45.9 22.6,45.8 
							22.6,45.9 22.6,45.8 22.6,45.8 22.4,45.9 22.4,46 22.6,46.2 22.6,46.2 26.3,46.2 26.3,46.2 26.5,46 26.5,46 26.3,45.8 
							26.3,45.8 						"/>
						<polygon class="st4" points="22.5,47.9 26.4,47.9 26.5,48.1 26.4,48.3 22.5,48.3 22.4,48.1 						"/>
						<polygon class="st5" points="22.5,47.9 22.5,48 26.3,48 26.4,48.1 26.3,48.2 22.5,48.2 22.5,48.1 22.6,48 22.5,47.9 22.5,48 
							22.5,47.9 22.5,47.9 22.3,48.1 22.3,48.1 22.5,48.3 22.5,48.3 26.4,48.3 26.4,48.3 26.6,48.1 26.6,48.1 26.4,47.9 26.4,47.9 
													"/>
						<polygon class="st4" points="22.7,46.1 26.2,46.1 26.3,46.3 26.2,46.4 22.7,46.4 22.6,46.3 						"/>
						<polygon class="st5" points="22.7,46.1 22.7,46.2 26.2,46.2 26.3,46.3 26.2,46.4 22.7,46.4 22.6,46.3 22.7,46.2 22.7,46.1 
							22.7,46.2 22.7,46.1 22.7,46.1 22.5,46.3 22.5,46.3 22.7,46.5 22.7,46.5 26.2,46.5 26.2,46.5 26.4,46.3 26.4,46.3 26.2,46.1 
							26.2,46.1 						"/>
						<polygon class="st4" points="24.8,44.4 24.9,45.8 23.9,45.8 24,44.4 						"/>
						<polygon class="st5" points="24.8,44.4 24.8,45.8 24,45.8 24.1,44.4 24.8,44.4 24.8,44.3 24,44.3 24,44.3 23.9,45.8 
							23.9,45.9 24.9,45.9 24.9,45.9 24.9,44.4 						"/>
						<polygon class="st4" points="23.8,43.8 24.1,43.8 24.1,44 24.3,44 24.3,43.8 24.6,43.8 24.6,44 24.7,44 24.7,43.8 25,43.8 
							25,44.3 24.9,44.4 24,44.4 23.8,44.3 						"/>
						<polygon class="st5" points="23.8,43.8 23.8,43.9 24,43.9 24,44 24,44.1 24.3,44.1 24.3,44.1 24.3,43.9 24.5,43.9 24.5,44 
							24.5,44.1 24.7,44.1 24.8,44.1 24.8,43.9 25,43.9 25,44.2 24.9,44.3 24,44.3 23.9,44.2 23.9,43.8 23.8,43.8 23.8,43.9 
							23.8,43.8 23.8,43.8 23.8,44.3 23.8,44.3 23.9,44.4 23.9,44.4 24.9,44.4 24.9,44.4 25.2,44.3 25.2,44.3 25.2,43.8 25.2,43.8 
							24.7,43.8 24.7,43.8 24.7,44 24.6,44 24.6,43.8 24.6,43.8 24.3,43.8 24.2,43.8 24.2,44 24.1,44 24.1,43.8 24.1,43.8 						"/>
						<polygon class="st5" points="24.3,45 24.5,45 24.5,45.3 24.3,45.3 						"/>
						<polygon class="st4" points="25,44.5 25.4,44.5 25.4,44.7 25.5,44.7 25.5,44.5 25.8,44.5 25.8,44.7 26,44.7 26,44.5 
							26.3,44.5 26.3,45 26.2,45.1 25.2,45.1 25,45 						"/>
						<polygon class="st5" points="25,44.5 25,44.6 25.3,44.6 25.3,44.7 25.3,44.8 25.5,44.8 25.6,44.8 25.6,44.6 25.8,44.6 
							25.8,44.7 25.8,44.8 26,44.8 26.1,44.8 26.1,44.6 26.2,44.6 26.2,44.9 26.1,45 25.2,45 25,44.9 25,44.5 25,44.5 25,44.6 
							25,44.5 24.9,44.5 24.9,45 24.9,45 25.2,45.1 26.2,45.1 26.2,45.1 26.3,45 26.3,45 26.3,44.5 26.3,44.5 26,44.5 25.9,44.5 
							25.9,44.6 25.9,44.6 25.9,44.5 25.9,44.5 25.5,44.5 25.5,44.5 25.5,44.6 25.4,44.6 25.4,44.5 25.4,44.5 25,44.5 24.9,44.5 
							24.9,44.5 						"/>
						<polygon class="st4" points="26.1,45.1 26.1,45.8 25.2,45.8 25.3,45.1 						"/>
						<polygon class="st5" points="26,45.1 26.1,45.8 25.3,45.8 25.3,45.1 26.1,45.1 26.1,45 25.3,45 25.2,45 25.2,45.8 25.2,45.9 
							26.1,45.9 26.2,45.9 26.2,45.1 						"/>
						<polygon class="st4" points="22.7,44.5 22.9,44.5 22.9,44.7 23.1,44.7 23.1,44.5 23.4,44.5 23.4,44.7 23.6,44.7 23.6,44.5 
							23.8,44.5 23.8,45 23.7,45.1 22.8,45.1 22.7,45 						"/>
						<polygon class="st5" points="22.7,44.5 22.7,44.6 22.9,44.6 22.9,44.7 22.9,44.8 23.1,44.8 23.2,44.8 23.2,44.6 23.3,44.6 
							23.3,44.7 23.3,44.8 23.6,44.8 23.6,44.8 23.6,44.6 23.8,44.6 23.8,44.9 23.7,45 22.8,45 22.7,44.9 22.7,44.5 22.7,44.5 
							22.7,44.6 22.7,44.5 22.6,44.5 22.6,45 22.6,45 22.7,45.1 22.8,45.1 23.7,45.1 23.8,45.1 23.9,45 23.9,45 23.9,44.5 
							23.9,44.5 23.6,44.5 23.5,44.5 23.5,44.6 23.4,44.6 23.4,44.5 23.4,44.5 23.1,44.5 23.1,44.5 23.1,44.6 23,44.6 23,44.5 
							23,44.5 22.7,44.5 22.6,44.5 22.6,44.5 						"/>
						<polygon class="st4" points="23.7,45.1 23.7,45.8 22.8,45.8 22.8,45.1 						"/>
						<polygon class="st5" points="23.6,45.1 23.7,45.8 22.9,45.8 22.9,45.1 23.7,45.1 23.7,45 22.8,45 22.8,45 22.7,45.8 
							22.7,45.9 23.7,45.9 23.8,45.9 23.7,45.1 						"/>
						<polygon class="st5" points="25.6,45.4 25.8,45.4 25.8,45.6 25.6,45.6 						"/>
						<polygon class="st5" points="23.2,45.4 23.4,45.4 23.4,45.6 23.2,45.6 						"/>
					</g>
				</g>
			</g>
		</g>
	</g>
</g>
</svg>
