<?xml version="1.0" encoding="utf-8"?>
<!-- Generator: Adobe Illustrator 21.1.0, SVG Export Plug-In . SVG Version: 6.00 Build 0)  -->
<svg version="1.1" id="Layer_1" xmlns="http://www.w3.org/2000/svg" xmlns:xlink="http://www.w3.org/1999/xlink" x="0px" y="0px"
	 viewBox="0 0 95.5 95.5" style="enable-background:new 0 0 95.5 95.5;" xml:space="preserve">
<style type="text/css">
	.st0{clip-path:url(#SVGID_2_);}
	.st1{fill:none;}
	.st2{fill:#DD2E26;}
	.st3{fill:#FEDE00;}
</style>
<g>
	<g>
		<defs>
			<rect id="SVGID_1_" width="95.5" height="95.5"/>
		</defs>
		<clipPath id="SVGID_2_">
			<use xlink:href="#SVGID_1_"  style="overflow:visible;"/>
		</clipPath>
		<g class="st0">
			<g>
				<circle class="st1" cx="48" cy="47.8" r="47.7"/>
				<g>
					<rect x="-1.3" class="st2" width="143.2" height="95.5"/>
					<g>
						<polygon class="st3" points="22.7,10.8 25.7,20 35.6,20 27.7,25.8 30.6,35.2 22.7,29.4 14.9,35.2 17.8,25.8 9.9,20 19.7,20 
													"/>
						<polygon class="st3" points="48.2,5.9 48.1,9.1 51,10.3 47.9,11.1 47.7,14.3 45.9,11.6 42.8,12.4 44.9,9.9 43.2,7.2 46.1,8.3 
													"/>
						<polygon class="st3" points="59.3,16.4 57.7,19.2 60,21.4 56.8,20.9 55.4,23.8 54.9,20.6 51.7,20.1 54.6,18.7 54.1,15.4 
							56.3,17.8 						"/>
						<polygon class="st3" points="55.9,29.4 56.9,32.4 60.2,32.4 57.5,34.3 58.5,37.4 55.9,35.5 53.3,37.4 54.3,34.3 51.7,32.4 
							54.9,32.4 						"/>
						<polygon class="st3" points="48.2,39.2 48,42.4 51,43.6 47.9,44.4 47.7,47.6 45.9,44.9 42.8,45.7 44.8,43.2 43.2,40.4 
							46.1,41.7 						"/>
					</g>
				</g>
			</g>
		</g>
	</g>
</g>
</svg>
