<?xml version="1.0" encoding="utf-8"?>
<!-- Generator: Adobe Illustrator 21.1.0, SVG Export Plug-In . SVG Version: 6.00 Build 0)  -->
<svg version="1.1" id="Layer_1" xmlns="http://www.w3.org/2000/svg" xmlns:xlink="http://www.w3.org/1999/xlink" x="0px" y="0px"
	 viewBox="0 0 95.5 95.5" style="enable-background:new 0 0 95.5 95.5;" xml:space="preserve">
<style type="text/css">
	.st0{clip-path:url(#SVGID_2_);}
	.st1{fill:none;}
	.st2{fill:#FFFFFF;}
	.st3{fill:#CE2028;}
	.st4{fill:#1E4384;}
	.st5{fill:#010101;}
</style>
<g>
	<g>
		<defs>
			<rect id="SVGID_1_" width="95.5" height="95.5"/>
		</defs>
		<clipPath id="SVGID_2_">
			<use xlink:href="#SVGID_1_"  style="overflow:visible;"/>
		</clipPath>
		<g class="st0">
			<g>
				<circle class="st1" cx="47.7" cy="47.8" r="47.4"/>
				<g>
					<rect x="-16.4" class="st2" width="128.2" height="95.5"/>
					<g>
						<g>
							<path class="st3" d="M64.5,44.7c0.8,8.9-5.8,16.8-14.6,17.6c-8.9,0.8-16.8-5.8-17.6-14.6c-0.8-8.9,5.8-16.8,14.6-17.6
								C55.9,29.4,63.7,35.8,64.5,44.7z"/>
							<path class="st4" d="M34.6,37.9c-2.3,3.8-1.1,8.8,2.7,11.1s8.8,1.1,11.1-2.7c2.3-3.8,7.3-5,11.1-2.7s5,7.3,2.7,11.1
								c-4.6,7.6-14.5,10.1-22.1,5.5C32.5,55.4,30,45.5,34.6,37.9"/>
						</g>
						<polygon class="st5" points="14.1,33.2 16.2,34.6 25.3,21.2 23.2,19.8 						"/>
						
							<rect x="14.8" y="28.2" transform="matrix(0.5585 -0.8295 0.8295 0.5585 -14.3233 31.9525)" class="st5" width="16.2" height="2.5"/>
						
							<rect x="18.1" y="30.3" transform="matrix(0.5572 -0.8304 0.8304 0.5572 -14.6324 35.735)" class="st5" width="16.2" height="2.5"/>
						<polygon class="st5" points="70,59.7 72.1,61.1 76.3,54.9 74.1,53.5 						"/>
						
							<rect x="64.5" y="63.2" transform="matrix(0.5578 -0.83 0.83 0.5578 -23.3139 85.1822)" class="st5" width="7.5" height="2.5"/>
						<polygon class="st5" points="73.2,61.9 75.4,63.3 79.5,57 77.4,55.6 						"/>
						<polygon class="st5" points="68.4,69.1 70.4,70.5 74.7,64.3 72.5,62.9 						"/>
						
							<rect x="75.9" y="60.4" transform="matrix(0.559 -0.8292 0.8292 0.559 -15.9514 93.2168)" class="st5" width="7.5" height="2.5"/>
						<polygon class="st5" points="71.6,71.3 73.6,72.7 77.9,66.4 75.8,65 						"/>
						<polygon class="st5" points="77.4,36.8 79.5,35.4 70.4,22 68.4,23.4 						"/>
						<polygon class="st5" points="75.8,27.5 77.9,26 73.6,19.8 71.6,21.2 						"/>
						<polygon class="st5" points="80.6,34.6 82.7,33.2 78.6,27 76.5,28.5 						"/>
						<polygon class="st5" points="69.3,31.8 71.4,30.4 67.2,24.1 65.2,25.5 						"/>
						<polygon class="st5" points="74.1,39 76.3,37.6 72.1,31.4 70,32.8 						"/>
						<polygon class="st5" points="29.6,68.3 31.7,66.9 22.7,53.5 20.5,54.9 						"/>
						
							<rect x="18.4" y="57.1" transform="matrix(0.8293 -0.5588 0.5588 0.8293 -33.0889 22.1125)" class="st5" width="2.5" height="16.2"/>
						<polygon class="st5" points="21.6,63.3 23.7,61.9 19.4,55.6 17.3,57 						"/>
						
							<rect x="24.1" y="62.9" transform="matrix(0.8302 -0.5575 0.5575 0.8302 -32.8414 25.4554)" class="st5" width="2.5" height="7.5"/>
					</g>
				</g>
			</g>
		</g>
	</g>
</g>
</svg>
